<?xml version="1.0" encoding="UTF-8"?>
<svg xmlns="http://www.w3.org/2000/svg" version="1.1" width="300" height="300" viewBox="0 0 300 300"><rect x="0" y="0" width="300" height="300" fill="#ffffff"/><g transform="scale(9.091)"><g transform="translate(0,0)"><path fill-rule="evenodd" d="M9 0L9 1L8 1L8 2L9 2L9 3L8 3L8 4L10 4L10 7L11 7L11 4L12 4L12 5L13 5L13 6L12 6L12 9L14 9L14 10L15 10L15 11L14 11L14 12L13 12L13 13L12 13L12 11L13 11L13 10L11 10L11 11L10 11L10 9L11 9L11 8L6 8L6 9L5 9L5 8L0 8L0 9L1 9L1 10L0 10L0 11L1 11L1 10L2 10L2 9L3 9L3 10L4 10L4 11L3 11L3 12L1 12L1 13L3 13L3 14L4 14L4 13L3 13L3 12L6 12L6 13L7 13L7 12L6 12L6 11L7 11L7 10L6 10L6 9L8 9L8 11L9 11L9 12L8 12L8 13L9 13L9 15L8 15L8 14L5 14L5 15L4 15L4 16L2 16L2 17L3 17L3 20L2 20L2 21L1 21L1 19L2 19L2 18L0 18L0 25L1 25L1 22L2 22L2 24L3 24L3 22L5 22L5 21L3 21L3 20L5 20L5 19L4 19L4 18L5 18L5 17L7 17L7 18L6 18L6 19L7 19L7 18L8 18L8 19L9 19L9 20L8 20L8 23L7 23L7 22L6 22L6 23L5 23L5 24L4 24L4 25L7 25L7 24L8 24L8 23L9 23L9 24L11 24L11 23L9 23L9 20L11 20L11 21L10 21L10 22L11 22L11 21L12 21L12 22L15 22L15 23L14 23L14 24L13 24L13 23L12 23L12 25L13 25L13 26L11 26L11 29L12 29L12 30L13 30L13 31L14 31L14 30L13 30L13 29L14 29L14 28L15 28L15 29L16 29L16 28L15 28L15 27L16 27L16 26L17 26L17 25L18 25L18 27L19 27L19 28L17 28L17 29L18 29L18 30L17 30L17 31L16 31L16 30L15 30L15 32L13 32L13 33L15 33L15 32L17 32L17 33L19 33L19 32L20 32L20 31L21 31L21 32L22 32L22 33L26 33L26 31L25 31L25 32L22 32L22 31L24 31L24 30L26 30L26 29L27 29L27 32L28 32L28 30L29 30L29 32L30 32L30 33L32 33L32 32L31 32L31 31L32 31L32 30L29 30L29 28L30 28L30 29L32 29L32 28L31 28L31 27L32 27L32 26L33 26L33 23L31 23L31 21L30 21L30 20L31 20L31 19L32 19L32 20L33 20L33 19L32 19L32 16L31 16L31 15L32 15L32 14L33 14L33 12L32 12L32 10L33 10L33 9L32 9L32 8L31 8L31 9L30 9L30 8L29 8L29 9L30 9L30 10L29 10L29 12L28 12L28 13L29 13L29 12L32 12L32 14L31 14L31 15L30 15L30 14L27 14L27 13L26 13L26 12L25 12L25 11L27 11L27 9L28 9L28 8L27 8L27 9L26 9L26 8L25 8L25 1L24 1L24 0L23 0L23 1L24 1L24 2L22 2L22 0L17 0L17 1L20 1L20 2L21 2L21 4L18 4L18 3L17 3L17 4L18 4L18 5L21 5L21 6L20 6L20 7L19 7L19 6L18 6L18 7L19 7L19 8L17 8L17 5L15 5L15 6L14 6L14 5L13 5L13 4L14 4L14 3L13 3L13 4L12 4L12 2L14 2L14 1L15 1L15 2L16 2L16 1L15 1L15 0L13 0L13 1L11 1L11 2L10 2L10 0ZM10 3L10 4L11 4L11 3ZM15 3L15 4L16 4L16 3ZM23 3L23 4L22 4L22 6L21 6L21 7L22 7L22 8L20 8L20 9L19 9L19 11L20 11L20 12L19 12L19 13L18 13L18 14L19 14L19 16L20 16L20 18L19 18L19 19L20 19L20 20L18 20L18 19L17 19L17 18L18 18L18 17L17 17L17 16L18 16L18 15L16 15L16 16L14 16L14 15L15 15L15 14L16 14L16 13L17 13L17 12L18 12L18 11L15 11L15 12L14 12L14 13L13 13L13 14L12 14L12 13L11 13L11 12L10 12L10 13L11 13L11 16L10 16L10 15L9 15L9 17L10 17L10 18L9 18L9 19L10 19L10 18L13 18L13 17L12 17L12 15L13 15L13 16L14 16L14 18L16 18L16 19L12 19L12 21L13 21L13 20L14 20L14 21L15 21L15 22L16 22L16 24L18 24L18 25L19 25L19 24L20 24L20 25L21 25L21 26L24 26L24 23L25 23L25 24L26 24L26 23L27 23L27 22L26 22L26 21L28 21L28 22L29 22L29 23L28 23L28 24L29 24L29 27L30 27L30 25L32 25L32 24L30 24L30 22L29 22L29 21L28 21L28 20L27 20L27 19L25 19L25 18L26 18L26 17L27 17L27 18L29 18L29 17L31 17L31 16L29 16L29 17L27 17L27 16L28 16L28 15L24 15L24 14L23 14L23 13L24 13L24 12L23 12L23 13L22 13L22 12L21 12L21 11L22 11L22 10L23 10L23 11L24 11L24 10L23 10L23 9L22 9L22 8L23 8L23 7L24 7L24 5L23 5L23 4L24 4L24 3ZM8 5L8 7L9 7L9 5ZM13 6L13 8L14 8L14 9L15 9L15 10L16 10L16 9L17 9L17 10L18 10L18 9L17 9L17 8L16 8L16 9L15 9L15 7L16 7L16 6L15 6L15 7L14 7L14 6ZM22 6L22 7L23 7L23 6ZM24 8L24 9L25 9L25 10L26 10L26 9L25 9L25 8ZM20 9L20 10L22 10L22 9ZM31 9L31 10L30 10L30 11L31 11L31 10L32 10L32 9ZM5 10L5 11L6 11L6 10ZM15 12L15 13L14 13L14 14L15 14L15 13L16 13L16 12ZM19 13L19 14L20 14L20 13ZM25 13L25 14L26 14L26 13ZM0 14L0 15L1 15L1 14ZM21 14L21 15L20 15L20 16L22 16L22 17L21 17L21 20L22 20L22 21L23 21L23 22L24 22L24 21L25 21L25 19L24 19L24 20L23 20L23 19L22 19L22 17L23 17L23 18L24 18L24 17L25 17L25 16L23 16L23 14ZM6 15L6 16L8 16L8 15ZM4 16L4 17L5 17L5 16ZM16 17L16 18L17 18L17 17ZM6 20L6 21L7 21L7 20ZM15 20L15 21L16 21L16 22L17 22L17 21L18 21L18 23L19 23L19 22L20 22L20 24L22 24L22 25L23 25L23 23L22 23L22 22L20 22L20 21L18 21L18 20ZM32 21L32 22L33 22L33 21ZM6 23L6 24L7 24L7 23ZM14 24L14 25L15 25L15 24ZM8 25L8 27L9 27L9 28L8 28L8 33L9 33L9 31L10 31L10 32L11 32L11 33L12 33L12 32L11 32L11 31L10 31L10 25ZM25 25L25 28L28 28L28 25ZM13 26L13 27L12 27L12 28L14 28L14 27L15 27L15 26ZM19 26L19 27L20 27L20 26ZM26 26L26 27L27 27L27 26ZM22 27L22 28L20 28L20 29L21 29L21 31L22 31L22 30L23 30L23 29L24 29L24 28L23 28L23 27ZM19 30L19 31L20 31L20 30ZM17 31L17 32L18 32L18 31ZM0 0L0 7L7 7L7 0ZM1 1L1 6L6 6L6 1ZM2 2L2 5L5 5L5 2ZM26 0L26 7L33 7L33 0ZM27 1L27 6L32 6L32 1ZM28 2L28 5L31 5L31 2ZM0 26L0 33L7 33L7 26ZM1 27L1 32L6 32L6 27ZM2 28L2 31L5 31L5 28Z" fill="#000000"/></g></g></svg>
