<?xml version="1.0" encoding="UTF-8"?>
<svg xmlns="http://www.w3.org/2000/svg" version="1.1" width="300" height="300" viewBox="0 0 300 300"><rect x="0" y="0" width="300" height="300" fill="#ffffff"/><g transform="scale(9.091)"><g transform="translate(0,0)"><path fill-rule="evenodd" d="M8 0L8 1L9 1L9 2L10 2L10 3L11 3L11 1L14 1L14 2L12 2L12 4L11 4L11 5L10 5L10 4L9 4L9 5L10 5L10 8L9 8L9 6L8 6L8 8L9 8L9 10L8 10L8 9L7 9L7 8L6 8L6 9L5 9L5 8L3 8L3 10L2 10L2 11L1 11L1 12L0 12L0 13L1 13L1 12L3 12L3 10L4 10L4 11L5 11L5 10L6 10L6 11L7 11L7 12L4 12L4 14L3 14L3 13L2 13L2 14L0 14L0 15L4 15L4 16L5 16L5 13L8 13L8 14L10 14L10 12L11 12L11 13L13 13L13 11L17 11L17 12L14 12L14 16L13 16L13 17L11 17L11 19L9 19L9 18L10 18L10 17L9 17L9 16L10 16L10 15L9 15L9 16L8 16L8 15L7 15L7 14L6 14L6 15L7 15L7 16L6 16L6 17L4 17L4 18L3 18L3 16L0 16L0 18L1 18L1 19L0 19L0 25L5 25L5 24L6 24L6 25L7 25L7 24L8 24L8 26L9 26L9 28L8 28L8 30L9 30L9 29L10 29L10 31L11 31L11 32L10 32L10 33L14 33L14 30L15 30L15 33L20 33L20 32L21 32L21 31L20 31L20 30L23 30L23 29L24 29L24 30L25 30L25 31L26 31L26 32L27 32L27 31L29 31L29 32L28 32L28 33L29 33L29 32L30 32L30 33L31 33L31 32L33 32L33 30L32 30L32 31L31 31L31 30L30 30L30 29L31 29L31 28L32 28L32 29L33 29L33 28L32 28L32 27L31 27L31 25L32 25L32 24L33 24L33 22L32 22L32 23L31 23L31 21L32 21L32 19L33 19L33 18L32 18L32 17L33 17L33 15L32 15L32 16L31 16L31 15L30 15L30 14L29 14L29 16L28 16L28 13L27 13L27 12L29 12L29 13L30 13L30 12L31 12L31 14L32 14L32 11L33 11L33 10L31 10L31 9L30 9L30 10L31 10L31 11L30 11L30 12L29 12L29 11L27 11L27 12L26 12L26 13L25 13L25 11L26 11L26 10L25 10L25 9L24 9L24 8L25 8L25 1L24 1L24 2L23 2L23 3L24 3L24 5L22 5L22 4L21 4L21 3L22 3L22 2L21 2L21 3L20 3L20 1L19 1L19 0L18 0L18 1L19 1L19 3L20 3L20 4L18 4L18 3L17 3L17 2L16 2L16 3L14 3L14 2L15 2L15 0L11 0L11 1L9 1L9 0ZM16 0L16 1L17 1L17 0ZM21 0L21 1L23 1L23 0ZM16 3L16 4L12 4L12 5L11 5L11 7L12 7L12 9L10 9L10 10L9 10L9 11L8 11L8 10L7 10L7 9L6 9L6 10L7 10L7 11L8 11L8 13L9 13L9 11L10 11L10 10L12 10L12 11L13 11L13 10L15 10L15 7L16 7L16 8L19 8L19 11L20 11L20 12L21 12L21 13L22 13L22 15L21 15L21 14L20 14L20 13L18 13L18 12L17 12L17 13L18 13L18 14L20 14L20 15L19 15L19 16L21 16L21 17L20 17L20 18L22 18L22 16L23 16L23 18L24 18L24 19L23 19L23 20L22 20L22 19L21 19L21 20L20 20L20 19L19 19L19 20L18 20L18 18L17 18L17 17L18 17L18 15L17 15L17 14L16 14L16 15L17 15L17 16L16 16L16 19L14 19L14 20L13 20L13 21L12 21L12 19L13 19L13 18L12 18L12 19L11 19L11 20L10 20L10 21L9 21L9 22L8 22L8 18L9 18L9 17L6 17L6 18L7 18L7 19L5 19L5 21L4 21L4 19L1 19L1 24L2 24L2 23L3 23L3 24L5 24L5 22L7 22L7 23L6 23L6 24L7 24L7 23L9 23L9 24L10 24L10 25L9 25L9 26L10 26L10 27L11 27L11 28L12 28L12 27L13 27L13 28L14 28L14 29L15 29L15 30L18 30L18 31L16 31L16 32L18 32L18 31L19 31L19 32L20 32L20 31L19 31L19 30L18 30L18 27L17 27L17 29L15 29L15 28L16 28L16 27L15 27L15 26L12 26L12 25L14 25L14 22L15 22L15 21L16 21L16 23L17 23L17 22L18 22L18 21L19 21L19 20L20 20L20 21L23 21L23 20L24 20L24 19L27 19L27 20L26 20L26 21L24 21L24 23L25 23L25 24L26 24L26 22L28 22L28 21L29 21L29 20L28 20L28 19L30 19L30 17L31 17L31 16L30 16L30 17L29 17L29 18L28 18L28 19L27 19L27 18L26 18L26 14L27 14L27 13L26 13L26 14L25 14L25 15L24 15L24 14L23 14L23 12L24 12L24 11L22 11L22 9L23 9L23 7L24 7L24 6L23 6L23 7L22 7L22 5L21 5L21 4L20 4L20 5L18 5L18 6L17 6L17 7L16 7L16 5L17 5L17 3ZM12 5L12 7L13 7L13 8L14 8L14 7L15 7L15 6L14 6L14 7L13 7L13 5ZM18 6L18 7L19 7L19 6ZM20 6L20 7L21 7L21 6ZM0 8L0 9L2 9L2 8ZM26 8L26 9L27 9L27 10L29 10L29 9L27 9L27 8ZM32 8L32 9L33 9L33 8ZM12 9L12 10L13 10L13 9ZM17 9L17 11L18 11L18 9ZM20 10L20 11L21 11L21 10ZM11 14L11 16L12 16L12 15L13 15L13 14ZM24 16L24 17L25 17L25 16ZM31 18L31 19L32 19L32 18ZM6 20L6 21L7 21L7 20ZM16 20L16 21L18 21L18 20ZM30 20L30 21L31 21L31 20ZM2 21L2 22L3 22L3 21ZM13 21L13 22L12 22L12 23L13 23L13 22L14 22L14 21ZM9 22L9 23L10 23L10 24L11 24L11 22ZM19 22L19 23L18 23L18 24L16 24L16 25L17 25L17 26L18 26L18 24L19 24L19 26L21 26L21 25L22 25L22 27L20 27L20 28L21 28L21 29L23 29L23 28L22 28L22 27L23 27L23 26L24 26L24 25L23 25L23 22L22 22L22 23L21 23L21 22ZM20 23L20 25L21 25L21 23ZM27 23L27 24L28 24L28 23ZM30 24L30 25L29 25L29 27L30 27L30 25L31 25L31 24ZM25 25L25 28L28 28L28 25ZM26 26L26 27L27 27L27 26ZM14 27L14 28L15 28L15 27ZM12 29L12 30L11 30L11 31L12 31L12 32L13 32L13 31L12 31L12 30L13 30L13 29ZM26 29L26 30L29 30L29 31L30 31L30 30L29 30L29 29ZM8 31L8 33L9 33L9 31ZM23 32L23 33L25 33L25 32ZM0 0L0 7L7 7L7 0ZM1 1L1 6L6 6L6 1ZM2 2L2 5L5 5L5 2ZM26 0L26 7L33 7L33 0ZM27 1L27 6L32 6L32 1ZM28 2L28 5L31 5L31 2ZM0 26L0 33L7 33L7 26ZM1 27L1 32L6 32L6 27ZM2 28L2 31L5 31L5 28Z" fill="#000000"/></g></g></svg>
