<?xml version="1.0" encoding="UTF-8"?>
<svg xmlns="http://www.w3.org/2000/svg" version="1.1" width="300" height="300" viewBox="0 0 300 300"><rect x="0" y="0" width="300" height="300" fill="#ffffff"/><g transform="scale(8.108)"><g transform="translate(0,0)"><path fill-rule="evenodd" d="M8 0L8 1L11 1L11 3L10 3L10 2L9 2L9 3L10 3L10 5L9 5L9 6L8 6L8 8L9 8L9 9L8 9L8 10L9 10L9 11L7 11L7 10L6 10L6 9L7 9L7 8L6 8L6 9L5 9L5 8L3 8L3 9L2 9L2 8L0 8L0 9L2 9L2 10L0 10L0 11L1 11L1 12L2 12L2 14L1 14L1 15L2 15L2 14L3 14L3 12L4 12L4 14L6 14L6 15L3 15L3 16L0 16L0 18L1 18L1 19L0 19L0 21L1 21L1 20L2 20L2 23L1 23L1 24L0 24L0 29L1 29L1 27L2 27L2 29L3 29L3 28L4 28L4 29L5 29L5 28L4 28L4 27L7 27L7 28L6 28L6 29L7 29L7 28L8 28L8 30L9 30L9 29L10 29L10 30L11 30L11 31L12 31L12 33L14 33L14 36L13 36L13 37L15 37L15 36L18 36L18 37L21 37L21 34L20 34L20 32L21 32L21 31L20 31L20 30L22 30L22 31L24 31L24 33L23 33L23 32L22 32L22 34L23 34L23 35L22 35L22 36L24 36L24 37L25 37L25 36L24 36L24 33L25 33L25 32L26 32L26 34L25 34L25 35L26 35L26 36L28 36L28 37L30 37L30 36L31 36L31 37L32 37L32 36L33 36L33 35L34 35L34 36L36 36L36 37L37 37L37 30L36 30L36 31L35 31L35 29L36 29L36 27L37 27L37 26L36 26L36 27L35 27L35 25L37 25L37 24L36 24L36 23L37 23L37 18L36 18L36 16L37 16L37 14L34 14L34 12L35 12L35 13L37 13L37 12L35 12L35 10L34 10L34 11L33 11L33 9L31 9L31 8L30 8L30 9L31 9L31 10L29 10L29 11L30 11L30 13L32 13L32 14L34 14L34 15L29 15L29 12L28 12L28 13L27 13L27 15L26 15L26 16L25 16L25 15L23 15L23 14L24 14L24 13L25 13L25 14L26 14L26 13L25 13L25 12L24 12L24 13L23 13L23 14L21 14L21 15L20 15L20 14L18 14L18 16L19 16L19 18L18 18L18 17L17 17L17 15L16 15L16 13L18 13L18 12L19 12L19 13L21 13L21 10L22 10L22 12L23 12L23 11L24 11L24 9L25 9L25 8L26 8L26 12L27 12L27 11L28 11L28 9L29 9L29 6L28 6L28 7L27 7L27 4L26 4L26 3L27 3L27 0L24 0L24 2L23 2L23 0L22 0L22 2L21 2L21 3L20 3L20 1L21 1L21 0L20 0L20 1L19 1L19 0L17 0L17 2L18 2L18 3L15 3L15 2L16 2L16 0L13 0L13 1L12 1L12 0ZM12 2L12 4L14 4L14 5L15 5L15 9L16 9L16 11L18 11L18 9L17 9L17 8L18 8L18 6L19 6L19 9L20 9L20 10L19 10L19 11L20 11L20 10L21 10L21 8L22 8L22 9L23 9L23 8L25 8L25 7L26 7L26 8L27 8L27 9L28 9L28 8L27 8L27 7L26 7L26 5L24 5L24 3L23 3L23 4L22 4L22 5L24 5L24 6L23 6L23 7L22 7L22 6L21 6L21 4L20 4L20 3L19 3L19 4L20 4L20 5L18 5L18 4L16 4L16 5L15 5L15 4L14 4L14 3L13 3L13 2ZM28 2L28 3L29 3L29 2ZM28 4L28 5L29 5L29 4ZM10 5L10 6L9 6L9 7L10 7L10 9L11 9L11 11L9 11L9 12L8 12L8 13L6 13L6 12L7 12L7 11L6 11L6 10L5 10L5 9L4 9L4 12L5 12L5 13L6 13L6 14L7 14L7 15L6 15L6 16L4 16L4 17L6 17L6 18L7 18L7 17L6 17L6 16L7 16L7 15L8 15L8 17L9 17L9 18L10 18L10 20L9 20L9 19L8 19L8 20L9 20L9 21L10 21L10 22L9 22L9 23L8 23L8 22L7 22L7 21L6 21L6 22L7 22L7 23L4 23L4 22L5 22L5 20L7 20L7 19L5 19L5 20L4 20L4 21L3 21L3 23L4 23L4 25L3 25L3 24L1 24L1 26L3 26L3 27L4 27L4 25L6 25L6 26L7 26L7 27L8 27L8 26L7 26L7 25L6 25L6 24L10 24L10 25L9 25L9 26L10 26L10 27L11 27L11 26L13 26L13 25L11 25L11 24L10 24L10 23L11 23L11 22L12 22L12 23L13 23L13 22L12 22L12 21L13 21L13 19L12 19L12 18L15 18L15 17L16 17L16 15L15 15L15 16L13 16L13 17L12 17L12 18L10 18L10 17L11 17L11 16L12 16L12 15L14 15L14 14L15 14L15 13L13 13L13 12L14 12L14 9L12 9L12 6L13 6L13 8L14 8L14 6L13 6L13 5L12 5L12 6L11 6L11 5ZM17 5L17 6L16 6L16 8L17 8L17 6L18 6L18 5ZM10 6L10 7L11 7L11 6ZM20 6L20 7L21 7L21 6ZM24 6L24 7L25 7L25 6ZM36 8L36 9L37 9L37 8ZM2 10L2 12L3 12L3 10ZM12 10L12 11L13 11L13 10ZM36 10L36 11L37 11L37 10ZM9 12L9 13L8 13L8 14L9 14L9 15L10 15L10 16L11 16L11 15L10 15L10 14L9 14L9 13L10 13L10 12ZM32 12L32 13L33 13L33 12ZM12 13L12 14L13 14L13 13ZM21 15L21 17L22 17L22 16L23 16L23 15ZM28 15L28 16L26 16L26 17L23 17L23 18L22 18L22 19L21 19L21 18L20 18L20 19L21 19L21 20L20 20L20 22L19 22L19 23L18 23L18 24L17 24L17 22L16 22L16 24L15 24L15 21L17 21L17 20L18 20L18 21L19 21L19 20L18 20L18 18L16 18L16 19L14 19L14 25L16 25L16 27L15 27L15 26L14 26L14 27L12 27L12 28L11 28L11 29L14 29L14 28L15 28L15 29L16 29L16 27L17 27L17 29L20 29L20 28L21 28L21 29L22 29L22 30L24 30L24 31L25 31L25 30L27 30L27 31L28 31L28 30L27 30L27 28L32 28L32 27L31 27L31 25L30 25L30 26L28 26L28 27L27 27L27 28L26 28L26 25L27 25L27 24L26 24L26 22L25 22L25 23L24 23L24 24L23 24L23 23L21 23L21 25L20 25L20 24L19 24L19 23L20 23L20 22L22 22L22 21L23 21L23 20L22 20L22 19L23 19L23 18L26 18L26 19L27 19L27 20L28 20L28 19L29 19L29 21L28 21L28 23L29 23L29 22L31 22L31 23L30 23L30 24L31 24L31 23L32 23L32 21L30 21L30 19L31 19L31 17L32 17L32 19L33 19L33 20L34 20L34 21L33 21L33 22L34 22L34 23L36 23L36 22L34 22L34 21L35 21L35 20L36 20L36 18L35 18L35 19L33 19L33 17L34 17L34 16L33 16L33 17L32 17L32 16L31 16L31 17L30 17L30 16L29 16L29 15ZM26 17L26 18L27 18L27 19L28 19L28 17ZM29 17L29 18L30 18L30 17ZM3 18L3 19L4 19L4 18ZM11 19L11 20L10 20L10 21L12 21L12 19ZM24 19L24 20L25 20L25 21L26 21L26 20L25 20L25 19ZM16 24L16 25L17 25L17 24ZM22 24L22 25L23 25L23 26L22 26L22 28L23 28L23 26L24 26L24 25L25 25L25 24L24 24L24 25L23 25L23 24ZM32 24L32 25L33 25L33 27L34 27L34 25L33 25L33 24ZM10 25L10 26L11 26L11 25ZM18 25L18 26L17 26L17 27L19 27L19 28L20 28L20 26L19 26L19 25ZM24 27L24 29L25 29L25 27ZM34 28L34 29L35 29L35 28ZM29 29L29 32L32 32L32 29ZM12 30L12 31L13 31L13 32L14 32L14 31L15 31L15 30ZM18 30L18 31L16 31L16 32L19 32L19 30ZM30 30L30 31L31 31L31 30ZM33 31L33 32L34 32L34 33L32 33L32 34L30 34L30 33L27 33L27 34L26 34L26 35L27 35L27 34L28 34L28 36L29 36L29 34L30 34L30 35L31 35L31 36L32 36L32 34L34 34L34 33L35 33L35 31ZM8 32L8 34L9 34L9 35L8 35L8 37L10 37L10 36L11 36L11 35L10 35L10 34L11 34L11 33L10 33L10 34L9 34L9 32ZM17 33L17 34L16 34L16 35L18 35L18 33ZM12 34L12 35L13 35L13 34ZM19 34L19 35L20 35L20 34ZM35 34L35 35L36 35L36 34ZM9 35L9 36L10 36L10 35ZM0 0L0 7L7 7L7 0ZM1 1L1 6L6 6L6 1ZM2 2L2 5L5 5L5 2ZM30 0L30 7L37 7L37 0ZM31 1L31 6L36 6L36 1ZM32 2L32 5L35 5L35 2ZM0 30L0 37L7 37L7 30ZM1 31L1 36L6 36L6 31ZM2 32L2 35L5 35L5 32Z" fill="#000000"/></g></g></svg>
