<?xml version="1.0" encoding="UTF-8"?>
<svg xmlns="http://www.w3.org/2000/svg" version="1.1" width="300" height="300" viewBox="0 0 300 300"><rect x="0" y="0" width="300" height="300" fill="#ffffff"/><g transform="scale(9.091)"><g transform="translate(0,0)"><path fill-rule="evenodd" d="M8 0L8 1L10 1L10 0ZM13 0L13 1L15 1L15 0ZM16 0L16 1L17 1L17 0ZM18 0L18 1L20 1L20 2L19 2L19 5L17 5L17 6L16 6L16 7L17 7L17 8L16 8L16 10L17 10L17 11L18 11L18 12L17 12L17 13L16 13L16 12L15 12L15 10L14 10L14 11L11 11L11 13L10 13L10 12L9 12L9 13L7 13L7 12L6 12L6 13L7 13L7 14L5 14L5 15L7 15L7 14L8 14L8 16L6 16L6 17L5 17L5 16L4 16L4 14L3 14L3 13L2 13L2 14L0 14L0 19L1 19L1 21L0 21L0 22L2 22L2 19L1 19L1 15L3 15L3 16L2 16L2 17L3 17L3 20L4 20L4 21L5 21L5 20L6 20L6 21L8 21L8 22L6 22L6 23L5 23L5 22L4 22L4 24L3 24L3 23L1 23L1 24L0 24L0 25L1 25L1 24L3 24L3 25L5 25L5 24L6 24L6 25L7 25L7 24L6 24L6 23L8 23L8 22L10 22L10 21L12 21L12 22L11 22L11 23L10 23L10 24L11 24L11 23L14 23L14 22L15 22L15 21L14 21L14 20L13 20L13 18L14 18L14 17L12 17L12 16L14 16L14 15L15 15L15 16L16 16L16 15L15 15L15 14L17 14L17 13L18 13L18 12L19 12L19 14L18 14L18 15L19 15L19 16L18 16L18 17L20 17L20 19L16 19L16 17L15 17L15 19L16 19L16 22L17 22L17 21L18 21L18 22L20 22L20 24L17 24L17 23L15 23L15 24L14 24L14 26L13 26L13 24L12 24L12 25L9 25L9 24L8 24L8 26L10 26L10 27L9 27L9 29L8 29L8 33L9 33L9 30L10 30L10 31L11 31L11 32L10 32L10 33L11 33L11 32L12 32L12 31L11 31L11 28L12 28L12 29L13 29L13 28L12 28L12 26L13 26L13 27L14 27L14 30L13 30L13 33L15 33L15 32L16 32L16 29L17 29L17 27L18 27L18 28L19 28L19 29L20 29L20 32L21 32L21 33L22 33L22 32L23 32L23 33L24 33L24 32L25 32L25 31L24 31L24 30L23 30L23 29L30 29L30 30L29 30L29 31L31 31L31 29L32 29L32 30L33 30L33 29L32 29L32 28L31 28L31 27L29 27L29 26L30 26L30 25L29 25L29 23L30 23L30 22L31 22L31 21L32 21L32 25L31 25L31 26L32 26L32 25L33 25L33 21L32 21L32 20L29 20L29 19L32 19L32 18L30 18L30 17L33 17L33 16L31 16L31 13L29 13L29 12L30 12L30 11L33 11L33 8L32 8L32 10L31 10L31 8L28 8L28 9L26 9L26 8L25 8L25 9L26 9L26 11L24 11L24 9L23 9L23 10L22 10L22 8L21 8L21 6L22 6L22 7L23 7L23 6L22 6L22 4L24 4L24 5L25 5L25 3L24 3L24 0L23 0L23 3L22 3L22 4L20 4L20 3L21 3L21 1L22 1L22 0L21 0L21 1L20 1L20 0ZM8 2L8 5L9 5L9 6L8 6L8 7L9 7L9 8L8 8L8 11L9 11L9 10L10 10L10 9L9 9L9 8L10 8L10 7L11 7L11 8L12 8L12 7L13 7L13 9L15 9L15 5L16 5L16 3L17 3L17 2L11 2L11 4L10 4L10 3L9 3L9 2ZM12 3L12 5L10 5L10 6L9 6L9 7L10 7L10 6L11 6L11 7L12 7L12 5L13 5L13 7L14 7L14 5L13 5L13 4L15 4L15 3ZM20 5L20 6L19 6L19 7L18 7L18 6L17 6L17 7L18 7L18 8L19 8L19 7L20 7L20 6L21 6L21 5ZM24 6L24 7L25 7L25 6ZM0 8L0 9L2 9L2 10L3 10L3 11L4 11L4 12L5 12L5 11L7 11L7 10L4 10L4 8ZM6 8L6 9L7 9L7 8ZM20 8L20 10L18 10L18 9L17 9L17 10L18 10L18 11L21 11L21 12L20 12L20 14L21 14L21 15L22 15L22 14L23 14L23 15L26 15L26 16L27 16L27 14L29 14L29 13L27 13L27 12L26 12L26 13L25 13L25 14L24 14L24 13L22 13L22 10L21 10L21 8ZM28 9L28 10L27 10L27 11L28 11L28 12L29 12L29 11L30 11L30 9ZM0 11L0 12L1 12L1 11ZM12 12L12 14L11 14L11 16L12 16L12 14L13 14L13 15L14 15L14 14L15 14L15 12ZM32 12L32 13L33 13L33 12ZM13 13L13 14L14 14L14 13ZM26 13L26 14L27 14L27 13ZM28 15L28 16L29 16L29 15ZM8 16L8 17L6 17L6 18L7 18L7 19L6 19L6 20L8 20L8 21L10 21L10 20L8 20L8 18L10 18L10 19L11 19L11 20L12 20L12 19L11 19L11 18L12 18L12 17L10 17L10 16ZM21 16L21 18L22 18L22 19L21 19L21 20L20 20L20 21L21 21L21 20L22 20L22 22L23 22L23 20L25 20L25 22L24 22L24 24L23 24L23 23L21 23L21 24L20 24L20 25L22 25L22 26L20 26L20 27L19 27L19 26L18 26L18 25L17 25L17 24L16 24L16 25L17 25L17 26L14 26L14 27L17 27L17 26L18 26L18 27L19 27L19 28L20 28L20 27L23 27L23 28L24 28L24 27L23 27L23 25L24 25L24 24L28 24L28 22L29 22L29 20L28 20L28 19L27 19L27 20L25 20L25 19L24 19L24 18L25 18L25 16L24 16L24 18L22 18L22 16ZM27 17L27 18L28 18L28 17ZM4 18L4 20L5 20L5 18ZM18 20L18 21L19 21L19 20ZM27 20L27 21L26 21L26 23L27 23L27 22L28 22L28 20ZM22 24L22 25L23 25L23 24ZM25 25L25 28L28 28L28 25ZM26 26L26 27L27 27L27 26ZM10 27L10 28L11 28L11 27ZM15 28L15 29L16 29L16 28ZM30 28L30 29L31 29L31 28ZM21 29L21 30L22 30L22 31L21 31L21 32L22 32L22 31L23 31L23 30L22 30L22 29ZM17 30L17 33L19 33L19 32L18 32L18 31L19 31L19 30ZM26 30L26 31L28 31L28 30ZM32 31L32 32L33 32L33 31ZM27 32L27 33L29 33L29 32ZM0 0L0 7L7 7L7 0ZM1 1L1 6L6 6L6 1ZM2 2L2 5L5 5L5 2ZM26 0L26 7L33 7L33 0ZM27 1L27 6L32 6L32 1ZM28 2L28 5L31 5L31 2ZM0 26L0 33L7 33L7 26ZM1 27L1 32L6 32L6 27ZM2 28L2 31L5 31L5 28Z" fill="#000000"/></g></g></svg>
