<?xml version="1.0" encoding="UTF-8"?>
<svg xmlns="http://www.w3.org/2000/svg" version="1.1" width="300" height="300" viewBox="0 0 300 300"><rect x="0" y="0" width="300" height="300" fill="#ffffff"/><g transform="scale(9.091)"><g transform="translate(0,0)"><path fill-rule="evenodd" d="M9 0L9 1L8 1L8 2L9 2L9 3L8 3L8 4L10 4L10 7L11 7L11 4L12 4L12 5L13 5L13 6L12 6L12 9L13 9L13 8L14 8L14 9L15 9L15 10L17 10L17 11L16 11L16 13L12 13L12 11L13 11L13 10L11 10L11 11L10 11L10 9L11 9L11 8L6 8L6 9L8 9L8 10L5 10L5 8L0 8L0 9L1 9L1 10L0 10L0 12L4 12L4 11L5 11L5 12L6 12L6 13L5 13L5 14L6 14L6 15L7 15L7 16L6 16L6 17L5 17L5 18L6 18L6 19L7 19L7 18L6 18L6 17L7 17L7 16L8 16L8 17L10 17L10 18L8 18L8 19L9 19L9 20L10 20L10 18L11 18L11 21L12 21L12 22L13 22L13 23L12 23L12 25L13 25L13 24L14 24L14 25L15 25L15 24L16 24L16 26L15 26L15 27L14 27L14 28L15 28L15 29L12 29L12 27L13 27L13 26L11 26L11 29L12 29L12 30L13 30L13 31L12 31L12 33L13 33L13 32L14 32L14 33L15 33L15 32L16 32L16 33L19 33L19 32L16 32L16 31L17 31L17 30L18 30L18 31L19 31L19 30L20 30L20 31L21 31L21 32L22 32L22 33L26 33L26 32L28 32L28 30L29 30L29 32L30 32L30 33L32 33L32 32L31 32L31 30L33 30L33 29L32 29L32 28L33 28L33 27L32 27L32 26L33 26L33 23L31 23L31 21L30 21L30 20L31 20L31 19L32 19L32 20L33 20L33 19L32 19L32 16L31 16L31 15L32 15L32 14L33 14L33 12L32 12L32 10L33 10L33 9L32 9L32 8L31 8L31 9L30 9L30 8L29 8L29 9L30 9L30 10L29 10L29 11L28 11L28 8L27 8L27 9L26 9L26 8L25 8L25 3L22 3L22 2L21 2L21 1L22 1L22 0L18 0L18 1L20 1L20 2L19 2L19 3L17 3L17 2L16 2L16 4L12 4L12 2L13 2L13 1L11 1L11 2L10 2L10 0ZM15 0L15 1L17 1L17 0ZM23 0L23 1L24 1L24 2L25 2L25 0ZM14 2L14 3L15 3L15 2ZM20 2L20 3L19 3L19 4L21 4L21 7L20 7L20 5L19 5L19 8L20 8L20 9L22 9L22 11L23 11L23 13L22 13L22 12L21 12L21 10L19 10L19 9L18 9L18 10L19 10L19 11L20 11L20 12L19 12L19 13L20 13L20 12L21 12L21 14L19 14L19 17L17 17L17 16L18 16L18 15L16 15L16 17L17 17L17 18L15 18L15 17L14 17L14 16L15 16L15 15L14 15L14 16L13 16L13 17L12 17L12 15L13 15L13 14L12 14L12 13L11 13L11 12L10 12L10 13L9 13L9 16L11 16L11 18L13 18L13 19L12 19L12 21L16 21L16 22L17 22L17 24L20 24L20 26L18 26L18 27L17 27L17 26L16 26L16 27L15 27L15 28L16 28L16 29L15 29L15 30L17 30L17 28L18 28L18 27L20 27L20 28L19 28L19 29L18 29L18 30L19 30L19 29L20 29L20 30L21 30L21 31L22 31L22 32L26 32L26 30L27 30L27 29L26 29L26 30L24 30L24 27L23 27L23 26L24 26L24 24L23 24L23 23L24 23L24 22L23 22L23 20L21 20L21 18L20 18L20 16L21 16L21 17L22 17L22 18L23 18L23 19L24 19L24 18L23 18L23 17L24 17L24 16L23 16L23 17L22 17L22 16L21 16L21 14L23 14L23 15L24 15L24 14L26 14L26 17L25 17L25 18L26 18L26 17L28 17L28 18L29 18L29 17L31 17L31 16L29 16L29 14L30 14L30 15L31 15L31 14L32 14L32 12L29 12L29 13L28 13L28 15L27 15L27 12L28 12L28 11L27 11L27 10L26 10L26 9L25 9L25 10L23 10L23 9L24 9L24 8L23 8L23 7L24 7L24 5L23 5L23 4L21 4L21 2ZM10 3L10 4L11 4L11 3ZM16 4L16 5L18 5L18 4ZM8 5L8 7L9 7L9 5ZM22 5L22 7L21 7L21 8L22 8L22 9L23 9L23 8L22 8L22 7L23 7L23 5ZM13 6L13 7L14 7L14 8L15 8L15 7L16 7L16 9L17 9L17 8L18 8L18 6L17 6L17 7L16 7L16 6L15 6L15 7L14 7L14 6ZM2 9L2 11L4 11L4 9ZM31 9L31 10L30 10L30 11L31 11L31 10L32 10L32 9ZM8 10L8 11L9 11L9 10ZM6 11L6 12L7 12L7 13L6 13L6 14L8 14L8 12L7 12L7 11ZM14 11L14 12L15 12L15 11ZM17 11L17 12L18 12L18 11ZM24 11L24 13L23 13L23 14L24 14L24 13L26 13L26 12L27 12L27 11L26 11L26 12L25 12L25 11ZM1 13L1 15L2 15L2 18L4 18L4 17L3 17L3 16L5 16L5 15L2 15L2 13ZM3 13L3 14L4 14L4 13ZM10 13L10 15L11 15L11 13ZM16 13L16 14L18 14L18 13ZM28 16L28 17L29 17L29 16ZM0 17L0 18L1 18L1 17ZM18 18L18 19L19 19L19 20L17 20L17 19L16 19L16 20L17 20L17 21L19 21L19 22L18 22L18 23L19 23L19 22L20 22L20 21L19 21L19 20L20 20L20 19L19 19L19 18ZM3 19L3 20L2 20L2 21L3 21L3 22L2 22L2 23L4 23L4 24L3 24L3 25L4 25L4 24L5 24L5 23L7 23L7 24L6 24L6 25L7 25L7 24L9 24L9 23L10 23L10 25L11 25L11 22L8 22L8 21L7 21L7 20L5 20L5 19ZM14 19L14 20L15 20L15 19ZM26 19L26 21L25 21L25 20L24 20L24 21L25 21L25 23L26 23L26 24L27 24L27 22L26 22L26 21L28 21L28 22L29 22L29 23L28 23L28 24L29 24L29 27L30 27L30 25L32 25L32 24L30 24L30 22L29 22L29 21L28 21L28 20L27 20L27 19ZM3 20L3 21L5 21L5 22L7 22L7 23L8 23L8 22L7 22L7 21L5 21L5 20ZM0 21L0 25L1 25L1 21ZM21 21L21 22L22 22L22 21ZM32 21L32 22L33 22L33 21ZM14 23L14 24L15 24L15 23ZM20 23L20 24L22 24L22 23ZM8 25L8 27L9 27L9 25ZM22 25L22 26L23 26L23 25ZM25 25L25 28L28 28L28 25ZM26 26L26 27L27 27L27 26ZM21 27L21 28L22 28L22 27ZM31 27L31 28L32 28L32 27ZM8 28L8 33L9 33L9 28ZM29 28L29 30L31 30L31 29L30 29L30 28ZM21 29L21 30L22 30L22 29ZM10 30L10 31L11 31L11 30ZM23 30L23 31L24 31L24 30ZM14 31L14 32L15 32L15 31ZM0 0L0 7L7 7L7 0ZM1 1L1 6L6 6L6 1ZM2 2L2 5L5 5L5 2ZM26 0L26 7L33 7L33 0ZM27 1L27 6L32 6L32 1ZM28 2L28 5L31 5L31 2ZM0 26L0 33L7 33L7 26ZM1 27L1 32L6 32L6 27ZM2 28L2 31L5 31L5 28Z" fill="#000000"/></g></g></svg>
