<?xml version="1.0" encoding="UTF-8"?>
<svg xmlns="http://www.w3.org/2000/svg" version="1.1" width="300" height="300" viewBox="0 0 300 300"><rect x="0" y="0" width="300" height="300" fill="#ffffff"/><g transform="scale(9.091)"><g transform="translate(0,0)"><path fill-rule="evenodd" d="M8 0L8 1L10 1L10 0ZM15 0L15 1L14 1L14 2L11 2L11 4L10 4L10 3L9 3L9 2L8 2L8 5L9 5L9 6L8 6L8 7L9 7L9 8L8 8L8 9L9 9L9 10L10 10L10 9L9 9L9 8L10 8L10 7L11 7L11 8L12 8L12 7L13 7L13 9L15 9L15 10L14 10L14 11L11 11L11 13L10 13L10 12L8 12L8 13L7 13L7 12L5 12L5 11L8 11L8 10L5 10L5 11L3 11L3 9L4 9L4 8L0 8L0 9L2 9L2 12L1 12L1 11L0 11L0 12L1 12L1 14L2 14L2 15L3 15L3 18L2 18L2 19L3 19L3 20L1 20L1 21L0 21L0 22L2 22L2 23L1 23L1 24L0 24L0 25L1 25L1 24L2 24L2 25L3 25L3 23L5 23L5 24L4 24L4 25L8 25L8 26L9 26L9 27L10 27L10 28L9 28L9 29L8 29L8 33L9 33L9 32L10 32L10 31L11 31L11 32L12 32L12 31L11 31L11 28L12 28L12 29L13 29L13 28L12 28L12 26L13 26L13 27L14 27L14 30L13 30L13 33L16 33L16 32L15 32L15 31L16 31L16 30L18 30L18 31L17 31L17 33L18 33L18 32L19 32L19 33L20 33L20 32L21 32L21 33L22 33L22 32L21 32L21 30L20 30L20 32L19 32L19 29L15 29L15 27L14 27L14 26L16 26L16 27L18 27L18 28L20 28L20 29L22 29L22 30L23 30L23 33L24 33L24 32L25 32L25 31L24 31L24 30L23 30L23 29L30 29L30 30L29 30L29 31L31 31L31 29L32 29L32 30L33 30L33 27L32 27L32 28L31 28L31 27L29 27L29 26L30 26L30 25L29 25L29 23L30 23L30 22L31 22L31 21L32 21L32 25L31 25L31 26L32 26L32 25L33 25L33 21L32 21L32 20L29 20L29 19L32 19L32 18L30 18L30 17L33 17L33 16L31 16L31 13L29 13L29 12L30 12L30 11L33 11L33 8L32 8L32 10L31 10L31 8L28 8L28 9L26 9L26 8L25 8L25 9L23 9L23 11L25 11L25 12L24 12L24 14L25 14L25 13L26 13L26 14L27 14L27 16L26 16L26 15L21 15L21 17L18 17L18 18L17 18L17 19L15 19L15 21L14 21L14 20L13 20L13 18L14 18L14 17L12 17L12 16L14 16L14 15L15 15L15 16L16 16L16 15L15 15L15 14L14 14L14 13L13 13L13 14L12 14L12 12L16 12L16 13L17 13L17 15L18 15L18 16L19 16L19 15L20 15L20 13L21 13L21 14L22 14L22 13L23 13L23 12L22 12L22 13L21 13L21 12L20 12L20 13L19 13L19 12L16 12L16 10L18 10L18 7L19 7L19 6L20 6L20 8L21 8L21 9L19 9L19 10L20 10L20 11L21 11L21 10L22 10L22 8L21 8L21 6L22 6L22 7L23 7L23 6L22 6L22 4L25 4L25 2L24 2L24 1L25 1L25 0L23 0L23 2L22 2L22 0L18 0L18 1L17 1L17 0ZM16 1L16 3L12 3L12 5L10 5L10 6L9 6L9 7L10 7L10 6L11 6L11 7L12 7L12 5L13 5L13 7L14 7L14 5L15 5L15 9L16 9L16 8L17 8L17 7L18 7L18 6L19 6L19 4L20 4L20 5L21 5L21 3L22 3L22 2L21 2L21 1L19 1L19 4L18 4L18 6L17 6L17 4L16 4L16 3L18 3L18 2L17 2L17 1ZM23 2L23 3L24 3L24 2ZM13 4L13 5L14 5L14 4ZM16 6L16 7L17 7L17 6ZM24 6L24 7L25 7L25 6ZM6 8L6 9L7 9L7 8ZM25 9L25 11L26 11L26 9ZM28 9L28 10L27 10L27 11L28 11L28 12L29 12L29 11L30 11L30 9ZM2 12L2 13L5 13L5 12ZM26 12L26 13L27 13L27 14L28 14L28 16L29 16L29 13L27 13L27 12ZM32 12L32 13L33 13L33 12ZM6 13L6 14L4 14L4 15L5 15L5 16L7 16L7 17L5 17L5 19L4 19L4 18L3 18L3 19L4 19L4 20L3 20L3 21L2 21L2 22L3 22L3 21L4 21L4 22L5 22L5 23L6 23L6 24L7 24L7 23L6 23L6 22L7 22L7 21L6 21L6 20L8 20L8 23L11 23L11 25L10 25L10 27L11 27L11 25L12 25L12 24L13 24L13 26L14 26L14 24L15 24L15 25L16 25L16 24L18 24L18 23L20 23L20 22L21 22L21 20L22 20L22 19L21 19L21 18L22 18L22 17L21 17L21 18L19 18L19 19L18 19L18 21L16 21L16 22L14 22L14 23L11 23L11 22L12 22L12 21L10 21L10 20L12 20L12 19L11 19L11 18L12 18L12 17L11 17L11 18L10 18L10 20L9 20L9 17L8 17L8 16L7 16L7 15L6 15L6 14L7 14L7 13ZM9 13L9 14L8 14L8 15L9 15L9 14L10 14L10 16L12 16L12 14L10 14L10 13ZM18 13L18 15L19 15L19 13ZM13 14L13 15L14 15L14 14ZM0 16L0 17L1 17L1 16ZM24 16L24 18L23 18L23 20L25 20L25 22L24 22L24 24L22 24L22 23L23 23L23 21L22 21L22 23L21 23L21 24L20 24L20 25L24 25L24 24L28 24L28 22L29 22L29 20L28 20L28 19L27 19L27 20L25 20L25 19L24 19L24 18L25 18L25 16ZM7 17L7 18L6 18L6 19L5 19L5 20L4 20L4 21L5 21L5 20L6 20L6 19L7 19L7 18L8 18L8 17ZM27 17L27 18L28 18L28 17ZM0 18L0 19L1 19L1 18ZM19 19L19 22L20 22L20 20L21 20L21 19ZM27 20L27 21L26 21L26 23L27 23L27 22L28 22L28 20ZM9 21L9 22L10 22L10 21ZM16 22L16 23L17 23L17 22ZM17 25L17 26L19 26L19 25ZM25 25L25 28L28 28L28 25ZM20 26L20 28L21 28L21 26ZM26 26L26 27L27 27L27 26ZM22 27L22 29L23 29L23 28L24 28L24 27ZM30 28L30 29L31 29L31 28ZM9 30L9 31L10 31L10 30ZM26 30L26 31L28 31L28 30ZM32 31L32 32L33 32L33 31ZM27 32L27 33L29 33L29 32ZM0 0L0 7L7 7L7 0ZM1 1L1 6L6 6L6 1ZM2 2L2 5L5 5L5 2ZM26 0L26 7L33 7L33 0ZM27 1L27 6L32 6L32 1ZM28 2L28 5L31 5L31 2ZM0 26L0 33L7 33L7 26ZM1 27L1 32L6 32L6 27ZM2 28L2 31L5 31L5 28Z" fill="#000000"/></g></g></svg>
