<?xml version="1.0" encoding="UTF-8"?>
<svg xmlns="http://www.w3.org/2000/svg" version="1.1" width="300" height="300" viewBox="0 0 300 300"><rect x="0" y="0" width="300" height="300" fill="#ffffff"/><g transform="scale(9.091)"><g transform="translate(0,0)"><path fill-rule="evenodd" d="M10 0L10 2L11 2L11 0ZM12 0L12 1L13 1L13 2L12 2L12 4L15 4L15 3L16 3L16 2L17 2L17 0L16 0L16 1L15 1L15 2L14 2L14 1L13 1L13 0ZM18 0L18 2L19 2L19 4L18 4L18 3L17 3L17 4L16 4L16 5L14 5L14 8L13 8L13 9L12 9L12 7L13 7L13 5L11 5L11 6L10 6L10 4L11 4L11 3L8 3L8 4L9 4L9 5L8 5L8 7L9 7L9 8L6 8L6 9L8 9L8 10L6 10L6 11L5 11L5 8L0 8L0 11L1 11L1 10L2 10L2 11L5 11L5 12L0 12L0 14L1 14L1 16L0 16L0 17L2 17L2 14L1 14L1 13L3 13L3 14L4 14L4 13L5 13L5 14L6 14L6 15L7 15L7 14L6 14L6 13L8 13L8 12L9 12L9 14L10 14L10 13L11 13L11 12L9 12L9 9L10 9L10 11L11 11L11 9L12 9L12 10L13 10L13 11L12 11L12 13L13 13L13 14L11 14L11 15L10 15L10 16L11 16L11 17L10 17L10 19L9 19L9 21L8 21L8 18L6 18L6 17L7 17L7 16L5 16L5 15L3 15L3 18L2 18L2 19L3 19L3 18L4 18L4 19L7 19L7 20L4 20L4 23L3 23L3 20L2 20L2 23L3 23L3 25L4 25L4 24L6 24L6 25L8 25L8 27L9 27L9 28L8 28L8 33L10 33L10 32L11 32L11 33L12 33L12 32L13 32L13 33L14 33L14 32L13 32L13 31L15 31L15 33L16 33L16 32L17 32L17 33L18 33L18 32L17 32L17 31L16 31L16 30L17 30L17 29L18 29L18 31L19 31L19 33L20 33L20 32L22 32L22 31L24 31L24 30L26 30L26 32L23 32L23 33L26 33L26 32L28 32L28 30L29 30L29 32L30 32L30 33L32 33L32 32L31 32L31 31L32 31L32 30L29 30L29 28L30 28L30 29L32 29L32 28L33 28L33 27L32 27L32 26L33 26L33 23L31 23L31 21L30 21L30 20L31 20L31 19L32 19L32 20L33 20L33 19L32 19L32 16L31 16L31 15L32 15L32 14L33 14L33 12L32 12L32 10L33 10L33 9L32 9L32 8L31 8L31 9L30 9L30 8L29 8L29 9L30 9L30 10L29 10L29 11L28 11L28 8L27 8L27 9L26 9L26 8L24 8L24 9L23 9L23 6L22 6L22 4L23 4L23 5L24 5L24 4L25 4L25 2L24 2L24 4L23 4L23 3L22 3L22 2L23 2L23 1L24 1L24 0L23 0L23 1L22 1L22 0ZM8 1L8 2L9 2L9 1ZM19 1L19 2L21 2L21 1ZM13 2L13 3L14 3L14 2ZM20 3L20 4L19 4L19 5L16 5L16 6L15 6L15 8L14 8L14 9L13 9L13 10L14 10L14 11L13 11L13 12L14 12L14 13L15 13L15 10L16 10L16 12L20 12L20 14L19 14L19 15L20 15L20 16L19 16L19 17L18 17L18 18L19 18L19 20L20 20L20 21L22 21L22 23L24 23L24 22L23 22L23 21L22 21L22 20L20 20L20 18L23 18L23 19L24 19L24 18L23 18L23 17L24 17L24 16L23 16L23 17L22 17L22 16L21 16L21 15L22 15L22 14L23 14L23 15L24 15L24 14L26 14L26 17L25 17L25 18L26 18L26 17L28 17L28 18L29 18L29 17L31 17L31 16L29 16L29 15L28 15L28 14L30 14L30 15L31 15L31 14L32 14L32 12L29 12L29 13L28 13L28 14L27 14L27 12L28 12L28 11L27 11L27 10L26 10L26 9L24 9L24 10L23 10L23 9L22 9L22 12L20 12L20 11L21 11L21 7L22 7L22 6L21 6L21 5L20 5L20 4L22 4L22 3ZM9 6L9 7L10 7L10 6ZM11 6L11 7L12 7L12 6ZM16 6L16 7L17 7L17 6ZM18 6L18 7L19 7L19 8L20 8L20 7L21 7L21 6L20 6L20 7L19 7L19 6ZM24 6L24 7L25 7L25 6ZM10 8L10 9L11 9L11 8ZM15 8L15 9L16 9L16 10L17 10L17 9L18 9L18 10L20 10L20 9L18 9L18 8ZM2 9L2 10L3 10L3 9ZM31 9L31 10L30 10L30 11L31 11L31 10L32 10L32 9ZM24 10L24 11L25 11L25 10ZM6 11L6 12L5 12L5 13L6 13L6 12L7 12L7 11ZM26 11L26 12L24 12L24 13L23 13L23 12L22 12L22 13L21 13L21 14L22 14L22 13L23 13L23 14L24 14L24 13L26 13L26 12L27 12L27 11ZM17 13L17 14L16 14L16 15L15 15L15 14L14 14L14 15L12 15L12 16L14 16L14 17L13 17L13 18L12 18L12 17L11 17L11 20L10 20L10 23L12 23L12 22L14 22L14 21L15 21L15 22L16 22L16 23L13 23L13 24L14 24L14 25L15 25L15 26L13 26L13 27L12 27L12 26L9 26L9 27L11 27L11 29L9 29L9 32L10 32L10 31L11 31L11 32L12 32L12 31L13 31L13 30L11 30L11 29L13 29L13 28L14 28L14 30L16 30L16 29L17 29L17 28L18 28L18 29L21 29L21 30L19 30L19 31L21 31L21 30L24 30L24 27L23 27L23 26L24 26L24 24L23 24L23 25L22 25L22 24L20 24L20 25L21 25L21 26L22 26L22 27L23 27L23 29L22 29L22 28L21 28L21 27L20 27L20 26L18 26L18 25L19 25L19 24L18 24L18 23L17 23L17 22L18 22L18 21L17 21L17 20L18 20L18 19L17 19L17 16L18 16L18 15L17 15L17 14L18 14L18 13ZM8 15L8 17L9 17L9 15ZM27 15L27 16L28 16L28 17L29 17L29 16L28 16L28 15ZM15 16L15 17L16 17L16 16ZM19 17L19 18L20 18L20 17ZM13 18L13 19L14 19L14 18ZM15 18L15 20L17 20L17 19L16 19L16 18ZM0 19L0 25L1 25L1 19ZM26 19L26 21L25 21L25 20L24 20L24 21L25 21L25 23L26 23L26 24L27 24L27 22L26 22L26 21L28 21L28 22L29 22L29 23L28 23L28 24L29 24L29 27L30 27L30 25L32 25L32 24L30 24L30 22L29 22L29 21L28 21L28 20L27 20L27 19ZM11 20L11 22L12 22L12 20ZM13 20L13 21L14 21L14 20ZM5 21L5 23L6 23L6 24L7 24L7 23L6 23L6 22L7 22L7 21ZM32 21L32 22L33 22L33 21ZM8 22L8 24L9 24L9 22ZM19 22L19 23L20 23L20 22ZM11 24L11 25L12 25L12 24ZM15 24L15 25L16 25L16 24ZM17 24L17 25L18 25L18 24ZM25 25L25 28L28 28L28 25ZM15 26L15 27L14 27L14 28L15 28L15 29L16 29L16 27L17 27L17 26ZM26 26L26 27L27 27L27 26ZM18 27L18 28L20 28L20 27ZM26 29L26 30L27 30L27 29ZM0 0L0 7L7 7L7 0ZM1 1L1 6L6 6L6 1ZM2 2L2 5L5 5L5 2ZM26 0L26 7L33 7L33 0ZM27 1L27 6L32 6L32 1ZM28 2L28 5L31 5L31 2ZM0 26L0 33L7 33L7 26ZM1 27L1 32L6 32L6 27ZM2 28L2 31L5 31L5 28Z" fill="#000000"/></g></g></svg>
