<?xml version="1.0" encoding="UTF-8"?>
<svg xmlns="http://www.w3.org/2000/svg" version="1.1" width="300" height="300" viewBox="0 0 300 300"><rect x="0" y="0" width="300" height="300" fill="#ffffff"/><g transform="scale(9.091)"><g transform="translate(0,0)"><path fill-rule="evenodd" d="M9 0L9 1L8 1L8 2L9 2L9 3L8 3L8 4L10 4L10 7L11 7L11 4L12 4L12 5L14 5L14 4L15 4L15 6L14 6L14 8L13 8L13 9L16 9L16 8L15 8L15 6L16 6L16 7L17 7L17 6L16 6L16 5L17 5L17 4L18 4L18 7L19 7L19 5L20 5L20 4L18 4L18 3L20 3L20 2L18 2L18 1L19 1L19 0L16 0L16 1L15 1L15 0L14 0L14 1L11 1L11 2L10 2L10 0ZM20 0L20 1L21 1L21 3L22 3L22 4L21 4L21 6L20 6L20 8L19 8L19 9L18 9L18 8L17 8L17 10L20 10L20 8L22 8L22 9L21 9L21 14L20 14L20 13L18 13L18 12L17 12L17 11L16 11L16 10L15 10L15 11L14 11L14 10L12 10L12 8L6 8L6 9L5 9L5 8L0 8L0 11L1 11L1 12L0 12L0 14L1 14L1 15L0 15L0 16L3 16L3 17L2 17L2 18L1 18L1 19L0 19L0 25L1 25L1 22L2 22L2 23L4 23L4 25L5 25L5 23L10 23L10 24L9 24L9 25L8 25L8 27L9 27L9 26L13 26L13 27L12 27L12 28L8 28L8 33L10 33L10 32L13 32L13 33L14 33L14 32L15 32L15 33L16 33L16 32L17 32L17 33L18 33L18 32L19 32L19 33L20 33L20 32L22 32L22 33L26 33L26 32L28 32L28 30L29 30L29 32L30 32L30 33L32 33L32 32L31 32L31 31L32 31L32 30L29 30L29 28L30 28L30 29L31 29L31 27L32 27L32 29L33 29L33 27L32 27L32 26L33 26L33 23L31 23L31 21L30 21L30 20L31 20L31 19L32 19L32 20L33 20L33 19L32 19L32 16L31 16L31 15L32 15L32 14L33 14L33 12L32 12L32 10L33 10L33 9L32 9L32 8L31 8L31 9L30 9L30 8L29 8L29 9L30 9L30 10L29 10L29 11L28 11L28 8L27 8L27 9L26 9L26 8L24 8L24 9L23 9L23 8L22 8L22 7L23 7L23 5L24 5L24 7L25 7L25 5L24 5L24 4L25 4L25 1L24 1L24 0L23 0L23 1L24 1L24 2L22 2L22 0ZM14 1L14 2L12 2L12 3L15 3L15 1ZM16 1L16 3L18 3L18 2L17 2L17 1ZM10 3L10 4L11 4L11 3ZM22 4L22 5L23 5L23 4ZM8 5L8 7L9 7L9 5ZM12 6L12 7L13 7L13 6ZM21 6L21 7L22 7L22 6ZM3 9L3 10L2 10L2 11L3 11L3 13L2 13L2 12L1 12L1 14L3 14L3 15L4 15L4 14L5 14L5 15L6 15L6 16L7 16L7 17L5 17L5 18L4 18L4 17L3 17L3 18L2 18L2 19L1 19L1 20L2 20L2 22L4 22L4 23L5 23L5 22L4 22L4 21L3 21L3 20L2 20L2 19L4 19L4 20L7 20L7 21L6 21L6 22L9 22L9 21L10 21L10 23L12 23L12 24L14 24L14 25L13 25L13 26L14 26L14 27L13 27L13 28L12 28L12 29L13 29L13 32L14 32L14 31L15 31L15 30L16 30L16 31L17 31L17 32L18 32L18 31L17 31L17 30L16 30L16 29L17 29L17 28L18 28L18 29L19 29L19 28L18 28L18 27L16 27L16 29L15 29L15 26L16 26L16 25L17 25L17 26L18 26L18 25L17 25L17 24L18 24L18 23L17 23L17 22L16 22L16 21L17 21L17 20L18 20L18 19L17 19L17 18L18 18L18 17L17 17L17 16L20 16L20 17L22 17L22 18L21 18L21 19L22 19L22 18L23 18L23 19L24 19L24 18L23 18L23 17L24 17L24 16L23 16L23 15L24 15L24 14L26 14L26 17L25 17L25 18L26 18L26 17L28 17L28 18L29 18L29 17L31 17L31 16L29 16L29 14L30 14L30 15L31 15L31 14L32 14L32 12L29 12L29 13L28 13L28 14L27 14L27 12L28 12L28 11L27 11L27 10L26 10L26 9L24 9L24 10L23 10L23 9L22 9L22 11L25 11L25 12L26 12L26 13L24 13L24 14L23 14L23 13L22 13L22 16L20 16L20 14L18 14L18 13L17 13L17 12L15 12L15 13L13 13L13 16L12 16L12 14L11 14L11 16L10 16L10 15L9 15L9 17L13 17L13 18L7 18L7 17L8 17L8 15L6 15L6 14L7 14L7 13L8 13L8 14L9 14L9 12L7 12L7 11L8 11L8 9L6 9L6 10L7 10L7 11L5 11L5 9ZM10 9L10 11L12 11L12 10L11 10L11 9ZM31 9L31 10L30 10L30 11L31 11L31 10L32 10L32 9ZM3 10L3 11L4 11L4 10ZM13 11L13 12L14 12L14 11ZM19 11L19 12L20 12L20 11ZM26 11L26 12L27 12L27 11ZM4 12L4 13L3 13L3 14L4 14L4 13L5 13L5 14L6 14L6 13L7 13L7 12ZM10 12L10 13L12 13L12 12ZM14 14L14 16L13 16L13 17L14 17L14 16L15 16L15 17L16 17L16 16L15 16L15 15L16 15L16 14ZM27 15L27 16L28 16L28 17L29 17L29 16L28 16L28 15ZM22 16L22 17L23 17L23 16ZM6 18L6 19L7 19L7 20L8 20L8 21L9 21L9 20L10 20L10 21L11 21L11 22L12 22L12 23L14 23L14 22L15 22L15 23L16 23L16 24L17 24L17 23L16 23L16 22L15 22L15 21L16 21L16 20L17 20L17 19L16 19L16 18L15 18L15 21L14 21L14 20L13 20L13 19L14 19L14 18L13 18L13 19L12 19L12 20L11 20L11 19L9 19L9 20L8 20L8 19L7 19L7 18ZM19 18L19 19L20 19L20 18ZM26 19L26 21L25 21L25 20L24 20L24 21L25 21L25 23L26 23L26 24L27 24L27 22L26 22L26 21L28 21L28 22L29 22L29 23L28 23L28 24L29 24L29 27L30 27L30 25L32 25L32 24L30 24L30 22L29 22L29 21L28 21L28 20L27 20L27 19ZM12 20L12 21L13 21L13 20ZM20 20L20 21L21 21L21 22L23 22L23 23L24 23L24 22L23 22L23 21L22 21L22 20ZM18 21L18 22L19 22L19 23L20 23L20 24L19 24L19 25L22 25L22 27L23 27L23 29L22 29L22 28L20 28L20 30L19 30L19 32L20 32L20 31L21 31L21 30L22 30L22 31L23 31L23 32L26 32L26 30L27 30L27 29L26 29L26 30L24 30L24 27L23 27L23 26L24 26L24 24L23 24L23 25L22 25L22 24L21 24L21 23L20 23L20 22L19 22L19 21ZM32 21L32 22L33 22L33 21ZM2 24L2 25L3 25L3 24ZM6 24L6 25L7 25L7 24ZM10 24L10 25L11 25L11 24ZM25 25L25 28L28 28L28 25ZM19 26L19 27L21 27L21 26ZM26 26L26 27L27 27L27 26ZM13 28L13 29L14 29L14 30L15 30L15 29L14 29L14 28ZM9 29L9 31L12 31L12 30L10 30L10 29ZM23 30L23 31L24 31L24 30ZM0 0L0 7L7 7L7 0ZM1 1L1 6L6 6L6 1ZM2 2L2 5L5 5L5 2ZM26 0L26 7L33 7L33 0ZM27 1L27 6L32 6L32 1ZM28 2L28 5L31 5L31 2ZM0 26L0 33L7 33L7 26ZM1 27L1 32L6 32L6 27ZM2 28L2 31L5 31L5 28Z" fill="#000000"/></g></g></svg>
