<?xml version="1.0" encoding="UTF-8"?>
<svg xmlns="http://www.w3.org/2000/svg" version="1.1" width="300" height="300" viewBox="0 0 300 300"><rect x="0" y="0" width="300" height="300" fill="#ffffff"/><g transform="scale(8.108)"><g transform="translate(0,0)"><path fill-rule="evenodd" d="M9 0L9 1L8 1L8 2L9 2L9 3L8 3L8 4L10 4L10 7L11 7L11 4L12 4L12 5L13 5L13 6L12 6L12 9L13 9L13 8L14 8L14 9L15 9L15 10L17 10L17 11L16 11L16 13L12 13L12 11L13 11L13 10L10 10L10 13L9 13L9 14L8 14L8 13L7 13L7 12L9 12L9 10L8 10L8 9L11 9L11 8L6 8L6 9L5 9L5 8L0 8L0 10L3 10L3 11L4 11L4 12L5 12L5 14L4 14L4 15L3 15L3 14L1 14L1 13L3 13L3 12L2 12L2 11L1 11L1 12L0 12L0 14L1 14L1 16L0 16L0 17L1 17L1 16L4 16L4 17L3 17L3 20L2 20L2 21L1 21L1 19L2 19L2 18L1 18L1 19L0 19L0 22L1 22L1 23L0 23L0 29L1 29L1 23L2 23L2 25L4 25L4 26L6 26L6 27L5 27L5 29L8 29L8 31L9 31L9 30L10 30L10 31L11 31L11 30L10 30L10 29L12 29L12 30L13 30L13 31L12 31L12 33L13 33L13 32L14 32L14 33L16 33L16 34L15 34L15 35L14 35L14 36L15 36L15 37L16 37L16 35L18 35L18 36L17 36L17 37L18 37L18 36L19 36L19 34L21 34L21 35L20 35L20 37L21 37L21 36L22 36L22 37L27 37L27 36L29 36L29 35L28 35L28 34L27 34L27 35L26 35L26 36L25 36L25 35L24 35L24 36L23 36L23 35L22 35L22 34L21 34L21 33L20 33L20 32L22 32L22 33L23 33L23 34L24 34L24 33L30 33L30 34L33 34L33 35L32 35L32 37L33 37L33 36L34 36L34 37L37 37L37 30L36 30L36 29L35 29L35 32L34 32L34 30L33 30L33 29L34 29L34 28L28 28L28 27L29 27L29 26L30 26L30 25L31 25L31 24L32 24L32 25L33 25L33 26L35 26L35 25L34 25L34 24L33 24L33 23L34 23L34 21L35 21L35 23L37 23L37 18L35 18L35 19L36 19L36 20L34 20L34 18L32 18L32 17L31 17L31 16L32 16L32 13L35 13L35 12L36 12L36 13L37 13L37 12L36 12L36 11L37 11L37 10L35 10L35 9L36 9L36 8L35 8L35 9L34 9L34 8L33 8L33 10L34 10L34 11L35 11L35 12L33 12L33 11L32 11L32 8L31 8L31 10L30 10L30 11L29 11L29 13L28 13L28 12L27 12L27 13L26 13L26 12L25 12L25 9L26 9L26 10L27 10L27 11L28 11L28 10L29 10L29 9L30 9L30 8L29 8L29 9L28 9L28 7L29 7L29 3L27 3L27 2L28 2L28 1L29 1L29 0L28 0L28 1L26 1L26 3L25 3L25 1L24 1L24 2L23 2L23 1L22 1L22 2L21 2L21 0L15 0L15 1L18 1L18 2L19 2L19 1L20 1L20 3L22 3L22 4L19 4L19 5L16 5L16 4L18 4L18 3L17 3L17 2L16 2L16 4L12 4L12 2L13 2L13 1L11 1L11 2L10 2L10 0ZM14 2L14 3L15 3L15 2ZM22 2L22 3L23 3L23 4L22 4L22 6L21 6L21 5L19 5L19 7L20 7L20 8L18 8L18 6L17 6L17 7L16 7L16 6L15 6L15 7L14 7L14 6L13 6L13 7L14 7L14 8L15 8L15 7L16 7L16 9L17 9L17 8L18 8L18 9L20 9L20 8L21 8L21 10L18 10L18 11L17 11L17 12L19 12L19 13L20 13L20 12L21 12L21 13L22 13L22 14L23 14L23 16L21 16L21 15L20 15L20 14L19 14L19 16L18 16L18 13L16 13L16 14L17 14L17 15L16 15L16 17L17 17L17 18L15 18L15 17L14 17L14 16L15 16L15 15L14 15L14 16L13 16L13 17L12 17L12 15L13 15L13 14L12 14L12 13L10 13L10 14L9 14L9 15L10 15L10 17L9 17L9 18L10 18L10 19L9 19L9 20L7 20L7 19L5 19L5 18L7 18L7 17L8 17L8 16L7 16L7 15L8 15L8 14L7 14L7 13L6 13L6 14L7 14L7 15L6 15L6 16L7 16L7 17L5 17L5 18L4 18L4 19L5 19L5 21L3 21L3 23L4 23L4 25L5 25L5 23L4 23L4 22L5 22L5 21L6 21L6 22L8 22L8 23L9 23L9 24L7 24L7 23L6 23L6 24L7 24L7 25L6 25L6 26L7 26L7 25L8 25L8 27L6 27L6 28L8 28L8 27L9 27L9 26L10 26L10 28L11 28L11 26L13 26L13 27L12 27L12 29L15 29L15 30L16 30L16 31L14 31L14 32L18 32L18 33L17 33L17 34L18 34L18 33L19 33L19 31L20 31L20 30L18 30L18 31L17 31L17 28L18 28L18 29L20 29L20 28L21 28L21 27L22 27L22 28L23 28L23 27L24 27L24 28L26 28L26 27L24 27L24 26L28 26L28 25L24 25L24 24L23 24L23 23L25 23L25 24L27 24L27 22L28 22L28 23L29 23L29 25L30 25L30 24L31 24L31 23L33 23L33 21L32 21L32 20L33 20L33 19L32 19L32 18L31 18L31 17L29 17L29 18L30 18L30 19L29 19L29 20L28 20L28 19L27 19L27 18L28 18L28 17L27 17L27 16L29 16L29 15L31 15L31 13L32 13L32 12L31 12L31 13L29 13L29 14L28 14L28 13L27 13L27 14L26 14L26 13L25 13L25 14L23 14L23 13L24 13L24 12L23 12L23 13L22 13L22 12L21 12L21 10L23 10L23 11L24 11L24 10L23 10L23 9L22 9L22 8L21 8L21 7L22 7L22 6L23 6L23 8L26 8L26 9L27 9L27 10L28 10L28 9L27 9L27 8L26 8L26 6L27 6L27 7L28 7L28 6L27 6L27 5L28 5L28 4L27 4L27 5L26 5L26 4L25 4L25 5L26 5L26 6L25 6L25 7L24 7L24 5L23 5L23 4L24 4L24 3L23 3L23 2ZM10 3L10 4L11 4L11 3ZM8 5L8 7L9 7L9 5ZM20 6L20 7L21 7L21 6ZM3 9L3 10L5 10L5 11L6 11L6 12L7 12L7 11L6 11L6 10L7 10L7 9L6 9L6 10L5 10L5 9ZM14 11L14 12L15 12L15 11ZM19 11L19 12L20 12L20 11ZM10 14L10 15L11 15L11 14ZM27 14L27 15L26 15L26 16L23 16L23 18L24 18L24 17L25 17L25 18L27 18L27 17L26 17L26 16L27 16L27 15L28 15L28 14ZM35 14L35 16L34 16L34 17L35 17L35 16L37 16L37 14ZM4 15L4 16L5 16L5 15ZM10 17L10 18L11 18L11 20L10 20L10 22L11 22L11 21L12 21L12 22L13 22L13 23L12 23L12 25L13 25L13 24L14 24L14 25L15 25L15 24L16 24L16 26L15 26L15 27L14 27L14 28L15 28L15 29L16 29L16 28L15 28L15 27L16 27L16 26L17 26L17 27L19 27L19 28L20 28L20 27L19 27L19 26L20 26L20 25L18 25L18 24L17 24L17 23L19 23L19 22L16 22L16 21L12 21L12 19L13 19L13 18L11 18L11 17ZM18 17L18 18L22 18L22 17ZM14 19L14 20L15 20L15 19ZM16 19L16 20L17 20L17 21L18 21L18 20L17 20L17 19ZM19 19L19 20L20 20L20 19ZM21 19L21 20L22 20L22 19ZM23 19L23 21L22 21L22 22L24 22L24 21L25 21L25 20L24 20L24 19ZM30 19L30 21L31 21L31 19ZM6 20L6 21L7 21L7 20ZM26 20L26 21L27 21L27 20ZM8 21L8 22L9 22L9 21ZM20 21L20 22L21 22L21 21ZM28 21L28 22L29 22L29 21ZM30 22L30 23L31 23L31 22ZM14 23L14 24L15 24L15 23ZM21 23L21 24L22 24L22 23ZM10 24L10 25L11 25L11 24ZM36 24L36 25L37 25L37 24ZM17 25L17 26L18 26L18 25ZM21 25L21 26L22 26L22 25ZM23 25L23 26L24 26L24 25ZM2 26L2 29L4 29L4 27L3 27L3 26ZM31 26L31 27L32 27L32 26ZM36 26L36 27L35 27L35 28L36 28L36 27L37 27L37 26ZM27 28L27 29L26 29L26 30L25 30L25 31L24 31L24 30L23 30L23 29L22 29L22 31L23 31L23 32L26 32L26 30L27 30L27 32L28 32L28 30L27 30L27 29L28 29L28 28ZM29 29L29 32L32 32L32 29ZM30 30L30 31L31 31L31 30ZM8 32L8 37L12 37L12 35L13 35L13 34L11 34L11 33L9 33L9 32ZM35 32L35 33L34 33L34 34L35 34L35 33L36 33L36 32ZM9 34L9 35L10 35L10 34ZM30 35L30 36L31 36L31 35ZM34 35L34 36L36 36L36 35ZM0 0L0 7L7 7L7 0ZM1 1L1 6L6 6L6 1ZM2 2L2 5L5 5L5 2ZM30 0L30 7L37 7L37 0ZM31 1L31 6L36 6L36 1ZM32 2L32 5L35 5L35 2ZM0 30L0 37L7 37L7 30ZM1 31L1 36L6 36L6 31ZM2 32L2 35L5 35L5 32Z" fill="#000000"/></g></g></svg>
