<?xml version="1.0" encoding="UTF-8"?>
<svg xmlns="http://www.w3.org/2000/svg" version="1.1" width="300" height="300" viewBox="0 0 300 300"><rect x="0" y="0" width="300" height="300" fill="#ffffff"/><g transform="scale(8.108)"><g transform="translate(0,0)"><path fill-rule="evenodd" d="M9 0L9 1L8 1L8 2L9 2L9 3L8 3L8 4L10 4L10 7L11 7L11 4L12 4L12 5L13 5L13 6L12 6L12 9L13 9L13 8L14 8L14 9L15 9L15 8L16 8L16 10L15 10L15 11L14 11L14 12L15 12L15 13L12 13L12 11L13 11L13 10L11 10L11 11L10 11L10 9L11 9L11 8L6 8L6 9L5 9L5 8L0 8L0 9L1 9L1 10L0 10L0 11L1 11L1 10L2 10L2 11L3 11L3 10L4 10L4 9L5 9L5 11L4 11L4 14L3 14L3 12L2 12L2 15L4 15L4 14L5 14L5 19L4 19L4 20L6 20L6 21L5 21L5 23L9 23L9 24L11 24L11 22L10 22L10 23L9 23L9 21L12 21L12 22L13 22L13 23L12 23L12 25L13 25L13 24L14 24L14 25L15 25L15 24L14 24L14 23L16 23L16 24L17 24L17 25L18 25L18 26L15 26L15 27L14 27L14 28L16 28L16 29L18 29L18 30L20 30L20 31L21 31L21 32L22 32L22 31L21 31L21 29L18 29L18 28L16 28L16 27L19 27L19 28L22 28L22 27L19 27L19 26L22 26L22 25L20 25L20 24L23 24L23 26L24 26L24 25L25 25L25 27L24 27L24 28L23 28L23 29L22 29L22 30L24 30L24 29L25 29L25 27L27 27L27 28L26 28L26 29L28 29L28 32L25 32L25 31L24 31L24 33L23 33L23 34L24 34L24 33L27 33L27 34L25 34L25 35L26 35L26 36L22 36L22 35L19 35L19 34L22 34L22 33L19 33L19 32L17 32L17 33L18 33L18 34L17 34L17 35L18 35L18 36L16 36L16 37L19 37L19 36L22 36L22 37L27 37L27 35L28 35L28 36L29 36L29 35L28 35L28 34L29 34L29 33L30 33L30 34L33 34L33 35L32 35L32 37L33 37L33 36L34 36L34 37L37 37L37 30L36 30L36 29L35 29L35 32L34 32L34 30L33 30L33 29L34 29L34 28L29 28L29 26L30 26L30 25L31 25L31 24L32 24L32 25L33 25L33 26L35 26L35 25L34 25L34 24L33 24L33 23L34 23L34 21L35 21L35 23L37 23L37 18L35 18L35 19L36 19L36 20L34 20L34 18L32 18L32 17L31 17L31 16L32 16L32 13L35 13L35 12L36 12L36 13L37 13L37 12L36 12L36 11L37 11L37 10L35 10L35 9L36 9L36 8L35 8L35 9L34 9L34 8L33 8L33 10L34 10L34 11L35 11L35 12L33 12L33 11L32 11L32 8L31 8L31 10L30 10L30 11L28 11L28 10L29 10L29 9L30 9L30 8L29 8L29 3L27 3L27 2L28 2L28 1L29 1L29 0L28 0L28 1L27 1L27 2L26 2L26 3L25 3L25 0L23 0L23 1L20 1L20 0L18 0L18 1L17 1L17 0L15 0L15 1L17 1L17 2L16 2L16 3L17 3L17 5L16 5L16 4L12 4L12 2L13 2L13 1L11 1L11 2L10 2L10 0ZM19 1L19 4L22 4L22 5L17 5L17 8L18 8L18 6L19 6L19 7L20 7L20 6L21 6L21 7L22 7L22 8L26 8L26 5L28 5L28 4L26 4L26 5L23 5L23 4L24 4L24 3L23 3L23 2L24 2L24 1L23 1L23 2L22 2L22 3L21 3L21 2L20 2L20 1ZM14 2L14 3L15 3L15 2ZM17 2L17 3L18 3L18 2ZM10 3L10 4L11 4L11 3ZM8 5L8 7L9 7L9 5ZM13 6L13 7L14 7L14 8L15 8L15 7L16 7L16 6L15 6L15 7L14 7L14 6ZM22 6L22 7L23 7L23 6ZM24 6L24 7L25 7L25 6ZM27 6L27 9L24 9L24 10L23 10L23 9L21 9L21 8L20 8L20 9L21 9L21 10L19 10L19 11L22 11L22 12L18 12L18 11L17 11L17 10L18 10L18 9L17 9L17 10L16 10L16 11L15 11L15 12L16 12L16 13L15 13L15 14L17 14L17 15L16 15L16 16L15 16L15 15L14 15L14 16L13 16L13 17L12 17L12 15L13 15L13 14L12 14L12 13L11 13L11 12L10 12L10 13L11 13L11 14L10 14L10 15L9 15L9 14L8 14L8 13L9 13L9 12L8 12L8 11L9 11L9 9L8 9L8 10L7 10L7 9L6 9L6 10L7 10L7 11L6 11L6 12L5 12L5 13L6 13L6 14L8 14L8 15L6 15L6 16L8 16L8 17L6 17L6 18L8 18L8 20L7 20L7 19L6 19L6 20L7 20L7 21L6 21L6 22L8 22L8 21L9 21L9 20L11 20L11 19L10 19L10 18L8 18L8 17L10 17L10 15L11 15L11 18L13 18L13 19L12 19L12 21L15 21L15 22L16 22L16 23L17 23L17 24L18 24L18 25L19 25L19 23L21 23L21 22L19 22L19 23L18 23L18 22L17 22L17 21L16 21L16 20L18 20L18 21L22 21L22 22L23 22L23 24L26 24L26 23L27 23L27 24L28 24L28 25L26 25L26 26L28 26L28 25L30 25L30 24L31 24L31 23L33 23L33 21L32 21L32 20L33 20L33 19L32 19L32 18L31 18L31 17L29 17L29 16L28 16L28 15L31 15L31 13L32 13L32 12L31 12L31 13L29 13L29 12L27 12L27 14L26 14L26 13L24 13L24 14L23 14L23 13L22 13L22 12L23 12L23 11L24 11L24 12L26 12L26 11L27 11L27 10L28 10L28 9L29 9L29 8L28 8L28 6ZM22 10L22 11L23 11L23 10ZM0 12L0 14L1 14L1 12ZM6 12L6 13L8 13L8 12ZM19 13L19 14L18 14L18 16L16 16L16 17L18 17L18 16L19 16L19 18L15 18L15 19L14 19L14 20L16 20L16 19L18 19L18 20L19 20L19 18L20 18L20 19L21 19L21 20L22 20L22 21L23 21L23 22L24 22L24 23L25 23L25 22L26 22L26 21L28 21L28 22L27 22L27 23L28 23L28 22L29 22L29 21L28 21L28 20L29 20L29 19L30 19L30 21L31 21L31 19L30 19L30 18L29 18L29 17L28 17L28 18L27 18L27 16L25 16L25 15L26 15L26 14L25 14L25 15L22 15L22 13ZM28 13L28 14L27 14L27 15L28 15L28 14L29 14L29 13ZM19 14L19 15L20 15L20 17L21 17L21 18L23 18L23 19L24 19L24 20L27 20L27 19L26 19L26 17L24 17L24 16L23 16L23 17L22 17L22 16L21 16L21 14ZM35 14L35 16L34 16L34 17L35 17L35 16L37 16L37 14ZM2 16L2 19L0 19L0 20L3 20L3 18L4 18L4 16ZM14 16L14 17L15 17L15 16ZM23 17L23 18L24 18L24 19L25 19L25 18L24 18L24 17ZM0 21L0 22L1 22L1 23L0 23L0 29L1 29L1 26L2 26L2 25L1 25L1 23L2 23L2 24L3 24L3 22L1 22L1 21ZM30 22L30 23L31 23L31 22ZM6 24L6 25L3 25L3 26L6 26L6 27L5 27L5 28L6 28L6 29L8 29L8 31L9 31L9 28L10 28L10 29L12 29L12 30L13 30L13 31L12 31L12 33L13 33L13 32L14 32L14 33L16 33L16 32L14 32L14 31L16 31L16 30L15 30L15 29L12 29L12 27L13 27L13 26L11 26L11 27L10 27L10 26L9 26L9 25L8 25L8 24ZM36 24L36 25L37 25L37 24ZM6 25L6 26L8 26L8 27L9 27L9 26L8 26L8 25ZM31 26L31 27L32 27L32 26ZM36 26L36 27L35 27L35 28L36 28L36 27L37 27L37 26ZM2 27L2 28L4 28L4 27ZM6 27L6 28L7 28L7 27ZM29 29L29 32L32 32L32 29ZM30 30L30 31L31 31L31 30ZM10 31L10 32L8 32L8 37L12 37L12 35L13 35L13 34L9 34L9 33L10 33L10 32L11 32L11 31ZM34 33L34 34L35 34L35 33ZM15 34L15 35L14 35L14 36L15 36L15 35L16 35L16 34ZM10 35L10 36L11 36L11 35ZM30 35L30 36L31 36L31 35ZM34 35L34 36L36 36L36 35ZM0 0L0 7L7 7L7 0ZM1 1L1 6L6 6L6 1ZM2 2L2 5L5 5L5 2ZM30 0L30 7L37 7L37 0ZM31 1L31 6L36 6L36 1ZM32 2L32 5L35 5L35 2ZM0 30L0 37L7 37L7 30ZM1 31L1 36L6 36L6 31ZM2 32L2 35L5 35L5 32Z" fill="#000000"/></g></g></svg>
