<?xml version="1.0" encoding="UTF-8"?>
<svg xmlns="http://www.w3.org/2000/svg" version="1.1" width="300" height="300" viewBox="0 0 300 300"><rect x="0" y="0" width="300" height="300" fill="#ffffff"/><g transform="scale(8.108)"><g transform="translate(0,0)"><path fill-rule="evenodd" d="M9 0L9 1L8 1L8 2L9 2L9 3L8 3L8 4L10 4L10 7L11 7L11 4L12 4L12 5L13 5L13 6L12 6L12 9L13 9L13 8L14 8L14 9L15 9L15 10L17 10L17 9L18 9L18 10L19 10L19 9L18 9L18 8L17 8L17 9L16 9L16 7L17 7L17 6L18 6L18 7L19 7L19 5L22 5L22 4L21 4L21 3L22 3L22 2L23 2L23 3L24 3L24 4L23 4L23 5L26 5L26 8L22 8L22 7L23 7L23 6L22 6L22 7L21 7L21 6L20 6L20 7L21 7L21 8L20 8L20 10L21 10L21 9L23 9L23 10L22 10L22 11L21 11L21 12L22 12L22 13L21 13L21 15L20 15L20 16L19 16L19 14L20 14L20 13L19 13L19 12L20 12L20 11L19 11L19 12L17 12L17 11L16 11L16 13L12 13L12 11L13 11L13 10L11 10L11 13L12 13L12 14L13 14L13 15L12 15L12 17L13 17L13 16L14 16L14 17L15 17L15 18L17 18L17 19L16 19L16 20L17 20L17 21L18 21L18 22L16 22L16 21L12 21L12 19L13 19L13 18L10 18L10 20L9 20L9 21L8 21L8 20L6 20L6 19L9 19L9 17L11 17L11 16L9 16L9 17L7 17L7 16L8 16L8 15L9 15L9 13L10 13L10 12L9 12L9 11L8 11L8 10L10 10L10 9L11 9L11 8L6 8L6 9L7 9L7 10L3 10L3 11L2 11L2 16L0 16L0 17L1 17L1 18L0 18L0 19L1 19L1 22L0 22L0 24L1 24L1 25L0 25L0 29L1 29L1 26L2 26L2 25L3 25L3 26L4 26L4 27L3 27L3 28L2 28L2 29L8 29L8 31L10 31L10 32L8 32L8 37L9 37L9 36L10 36L10 37L12 37L12 35L13 35L13 34L11 34L11 35L9 35L9 34L10 34L10 32L11 32L11 31L10 31L10 29L9 29L9 27L11 27L11 29L12 29L12 30L13 30L13 31L12 31L12 33L13 33L13 32L14 32L14 33L15 33L15 32L16 32L16 33L17 33L17 34L15 34L15 35L14 35L14 36L16 36L16 37L19 37L19 35L18 35L18 34L22 34L22 33L19 33L19 30L20 30L20 31L21 31L21 32L22 32L22 31L21 31L21 29L19 29L19 26L22 26L22 25L19 25L19 22L20 22L20 23L21 23L21 24L23 24L23 26L24 26L24 25L25 25L25 27L24 27L24 28L23 28L23 29L22 29L22 30L24 30L24 29L25 29L25 27L27 27L27 28L26 28L26 29L28 29L28 32L25 32L25 31L24 31L24 33L23 33L23 34L24 34L24 33L27 33L27 34L25 34L25 35L26 35L26 36L22 36L22 35L20 35L20 36L22 36L22 37L27 37L27 35L28 35L28 36L29 36L29 35L28 35L28 34L29 34L29 33L30 33L30 34L33 34L33 35L32 35L32 37L33 37L33 36L34 36L34 37L37 37L37 30L36 30L36 29L35 29L35 32L34 32L34 30L33 30L33 29L34 29L34 28L29 28L29 26L30 26L30 25L31 25L31 24L32 24L32 25L33 25L33 26L32 26L32 27L33 27L33 26L35 26L35 25L34 25L34 24L33 24L33 23L34 23L34 21L35 21L35 23L37 23L37 18L35 18L35 19L36 19L36 20L34 20L34 18L32 18L32 17L31 17L31 16L32 16L32 13L35 13L35 12L36 12L36 13L37 13L37 12L36 12L36 11L37 11L37 10L35 10L35 9L36 9L36 8L35 8L35 9L34 9L34 8L33 8L33 10L34 10L34 11L35 11L35 12L33 12L33 11L32 11L32 8L31 8L31 10L30 10L30 11L28 11L28 10L29 10L29 9L30 9L30 8L29 8L29 3L27 3L27 2L28 2L28 1L29 1L29 0L28 0L28 1L27 1L27 2L26 2L26 3L25 3L25 0L23 0L23 1L21 1L21 0L15 0L15 1L18 1L18 2L19 2L19 3L20 3L20 4L18 4L18 3L17 3L17 2L16 2L16 4L12 4L12 2L13 2L13 1L11 1L11 2L10 2L10 0ZM19 1L19 2L20 2L20 3L21 3L21 1ZM23 1L23 2L24 2L24 1ZM14 2L14 3L15 3L15 2ZM10 3L10 4L11 4L11 3ZM16 4L16 5L18 5L18 4ZM26 4L26 5L28 5L28 4ZM8 5L8 7L9 7L9 5ZM13 6L13 7L14 7L14 8L15 8L15 7L16 7L16 6L15 6L15 7L14 7L14 6ZM24 6L24 7L25 7L25 6ZM27 6L27 9L24 9L24 10L23 10L23 11L22 11L22 12L23 12L23 11L24 11L24 12L26 12L26 11L27 11L27 10L28 10L28 9L29 9L29 8L28 8L28 6ZM0 8L0 9L1 9L1 10L0 10L0 14L1 14L1 10L2 10L2 9L5 9L5 8ZM3 11L3 12L4 12L4 15L3 15L3 17L2 17L2 18L3 18L3 19L2 19L2 22L3 22L3 23L4 23L4 18L3 18L3 17L4 17L4 15L6 15L6 16L7 16L7 15L8 15L8 13L9 13L9 12L8 12L8 11L6 11L6 12L8 12L8 13L6 13L6 14L5 14L5 12L4 12L4 11ZM14 11L14 12L15 12L15 11ZM27 12L27 14L26 14L26 13L24 13L24 14L23 14L23 13L22 13L22 15L25 15L25 16L27 16L27 18L28 18L28 17L29 17L29 18L30 18L30 19L29 19L29 20L28 20L28 21L26 21L26 22L25 22L25 23L24 23L24 22L23 22L23 21L22 21L22 20L21 20L21 18L23 18L23 19L24 19L24 20L27 20L27 19L26 19L26 17L24 17L24 16L23 16L23 17L22 17L22 16L20 16L20 18L19 18L19 17L18 17L18 18L19 18L19 19L20 19L20 20L19 20L19 21L20 21L20 22L21 22L21 21L22 21L22 22L23 22L23 24L26 24L26 23L27 23L27 24L28 24L28 25L26 25L26 26L28 26L28 25L30 25L30 24L31 24L31 23L33 23L33 21L32 21L32 20L33 20L33 19L32 19L32 18L31 18L31 17L29 17L29 16L28 16L28 15L31 15L31 13L32 13L32 12L31 12L31 13L29 13L29 12ZM16 13L16 14L18 14L18 13ZM28 13L28 14L27 14L27 15L28 15L28 14L29 14L29 13ZM6 14L6 15L7 15L7 14ZM10 14L10 15L11 15L11 14ZM25 14L25 15L26 15L26 14ZM35 14L35 16L34 16L34 17L35 17L35 16L37 16L37 14ZM14 15L14 16L15 16L15 15ZM16 15L16 17L17 17L17 16L18 16L18 15ZM6 17L6 18L7 18L7 17ZM23 17L23 18L24 18L24 19L25 19L25 18L24 18L24 17ZM14 19L14 20L15 20L15 19ZM17 19L17 20L18 20L18 19ZM30 19L30 21L31 21L31 19ZM10 20L10 21L11 21L11 23L10 23L10 22L8 22L8 21L5 21L5 22L8 22L8 24L7 24L7 23L5 23L5 24L4 24L4 25L5 25L5 27L4 27L4 28L7 28L7 27L9 27L9 26L13 26L13 27L12 27L12 29L15 29L15 30L16 30L16 32L18 32L18 31L17 31L17 30L19 30L19 29L17 29L17 28L18 28L18 27L17 27L17 26L19 26L19 25L17 25L17 26L16 26L16 24L15 24L15 23L14 23L14 24L13 24L13 25L12 25L12 23L13 23L13 22L12 22L12 21L11 21L11 20ZM28 21L28 22L27 22L27 23L28 23L28 22L29 22L29 21ZM30 22L30 23L31 23L31 22ZM9 23L9 24L8 24L8 25L7 25L7 24L5 24L5 25L7 25L7 26L6 26L6 27L7 27L7 26L9 26L9 24L10 24L10 25L11 25L11 24L10 24L10 23ZM17 23L17 24L18 24L18 23ZM14 24L14 25L15 25L15 24ZM36 24L36 25L37 25L37 24ZM15 26L15 27L14 27L14 28L15 28L15 29L16 29L16 28L15 28L15 27L16 27L16 26ZM36 26L36 27L35 27L35 28L36 28L36 27L37 27L37 26ZM20 27L20 28L22 28L22 27ZM29 29L29 32L32 32L32 29ZM30 30L30 31L31 31L31 30ZM14 31L14 32L15 32L15 31ZM35 32L35 33L34 33L34 34L35 34L35 33L36 33L36 32ZM16 35L16 36L18 36L18 35ZM30 35L30 36L31 36L31 35ZM34 35L34 36L36 36L36 35ZM0 0L0 7L7 7L7 0ZM1 1L1 6L6 6L6 1ZM2 2L2 5L5 5L5 2ZM30 0L30 7L37 7L37 0ZM31 1L31 6L36 6L36 1ZM32 2L32 5L35 5L35 2ZM0 30L0 37L7 37L7 30ZM1 31L1 36L6 36L6 31ZM2 32L2 35L5 35L5 32Z" fill="#000000"/></g></g></svg>
