<?xml version="1.0" encoding="UTF-8"?>
<svg xmlns="http://www.w3.org/2000/svg" version="1.1" width="300" height="300" viewBox="0 0 300 300"><rect x="0" y="0" width="300" height="300" fill="#ffffff"/><g transform="scale(9.091)"><g transform="translate(0,0)"><path fill-rule="evenodd" d="M8 0L8 4L10 4L10 3L11 3L11 4L12 4L12 2L11 2L11 0ZM12 0L12 1L14 1L14 2L15 2L15 3L13 3L13 4L14 4L14 5L11 5L11 6L10 6L10 7L9 7L9 5L8 5L8 7L9 7L9 8L10 8L10 7L11 7L11 6L12 6L12 8L11 8L11 9L9 9L9 10L11 10L11 11L10 11L10 13L11 13L11 15L9 15L9 16L11 16L11 15L12 15L12 12L13 12L13 11L14 11L14 12L15 12L15 13L13 13L13 14L14 14L14 17L13 17L13 16L12 16L12 17L9 17L9 18L10 18L10 20L9 20L9 19L7 19L7 18L4 18L4 17L7 17L7 16L6 16L6 15L8 15L8 14L5 14L5 15L4 15L4 14L3 14L3 12L4 12L4 10L3 10L3 9L2 9L2 8L0 8L0 9L2 9L2 10L1 10L1 12L0 12L0 15L1 15L1 12L2 12L2 17L1 17L1 16L0 16L0 18L1 18L1 19L0 19L0 22L2 22L2 21L1 21L1 19L3 19L3 18L4 18L4 19L7 19L7 20L6 20L6 21L5 21L5 22L6 22L6 23L7 23L7 24L0 24L0 25L7 25L7 24L8 24L8 26L9 26L9 27L8 27L8 29L9 29L9 31L8 31L8 33L9 33L9 32L10 32L10 31L11 31L11 32L13 32L13 31L14 31L14 33L15 33L15 31L16 31L16 32L17 32L17 33L18 33L18 31L19 31L19 33L25 33L25 29L26 29L26 33L28 33L28 32L29 32L29 27L30 27L30 26L31 26L31 28L30 28L30 29L31 29L31 31L32 31L32 30L33 30L33 29L32 29L32 26L31 26L31 25L32 25L32 24L33 24L33 23L31 23L31 25L30 25L30 26L29 26L29 24L30 24L30 22L32 22L32 21L33 21L33 19L32 19L32 18L33 18L33 16L32 16L32 18L31 18L31 17L29 17L29 15L28 15L28 14L27 14L27 11L29 11L29 10L27 10L27 11L26 11L26 13L25 13L25 12L22 12L22 11L21 11L21 12L20 12L20 11L19 11L19 12L18 12L18 11L17 11L17 10L16 10L16 9L13 9L13 6L14 6L14 8L15 8L15 4L16 4L16 5L17 5L17 4L16 4L16 3L18 3L18 5L19 5L19 6L18 6L18 7L17 7L17 6L16 6L16 8L17 8L17 9L18 9L18 10L20 10L20 9L23 9L23 11L25 11L25 10L26 10L26 9L25 9L25 5L24 5L24 2L23 2L23 1L24 1L24 0L23 0L23 1L22 1L22 2L21 2L21 4L22 4L22 3L23 3L23 5L24 5L24 7L23 7L23 6L22 6L22 7L21 7L21 5L19 5L19 2L20 2L20 1L19 1L19 0L15 0L15 1L14 1L14 0ZM15 1L15 2L19 2L19 1ZM9 2L9 3L10 3L10 2ZM19 6L19 7L20 7L20 6ZM4 8L4 9L7 9L7 10L5 10L5 12L6 12L6 13L9 13L9 11L7 11L7 10L8 10L8 9L7 9L7 8ZM19 8L19 9L20 9L20 8ZM23 8L23 9L24 9L24 10L25 10L25 9L24 9L24 8ZM27 8L27 9L28 9L28 8ZM29 8L29 9L30 9L30 11L31 11L31 14L30 14L30 15L32 15L32 9L33 9L33 8ZM11 9L11 10L12 10L12 9ZM14 10L14 11L15 11L15 10ZM2 11L2 12L3 12L3 11ZM6 11L6 12L7 12L7 11ZM16 11L16 14L17 14L17 15L18 15L18 16L19 16L19 18L18 18L18 17L17 17L17 16L16 16L16 15L15 15L15 17L16 17L16 18L17 18L17 19L16 19L16 20L15 20L15 18L14 18L14 19L13 19L13 20L12 20L12 19L11 19L11 21L13 21L13 22L14 22L14 23L12 23L12 25L14 25L14 24L16 24L16 25L17 25L17 26L16 26L16 27L17 27L17 26L18 26L18 25L19 25L19 27L18 27L18 29L19 29L19 31L20 31L20 32L21 32L21 31L24 31L24 28L22 28L22 30L21 30L21 29L20 29L20 28L19 28L19 27L20 27L20 26L21 26L21 25L20 25L20 21L19 21L19 19L20 19L20 20L21 20L21 18L23 18L23 17L24 17L24 16L25 16L25 17L26 17L26 18L28 18L28 20L30 20L30 21L31 21L31 20L32 20L32 19L31 19L31 18L29 18L29 17L26 17L26 16L27 16L27 14L26 14L26 16L25 16L25 13L24 13L24 15L23 15L23 13L22 13L22 16L23 16L23 17L21 17L21 18L20 18L20 15L21 15L21 14L20 14L20 13L18 13L18 14L17 14L17 11ZM28 12L28 13L29 13L29 12ZM3 15L3 16L4 16L4 15ZM24 18L24 19L22 19L22 20L24 20L24 21L26 21L26 22L24 22L24 23L22 23L22 24L23 24L23 25L22 25L22 27L24 27L24 24L25 24L25 23L26 23L26 24L27 24L27 22L28 22L28 23L29 23L29 21L26 21L26 20L27 20L27 19L26 19L26 20L25 20L25 18ZM17 19L17 21L15 21L15 20L14 20L14 21L15 21L15 23L16 23L16 24L17 24L17 25L18 25L18 23L17 23L17 22L19 22L19 21L18 21L18 19ZM3 20L3 22L4 22L4 20ZM7 20L7 21L6 21L6 22L9 22L9 20ZM22 21L22 22L23 22L23 21ZM10 22L10 23L8 23L8 24L10 24L10 25L9 25L9 26L10 26L10 28L9 28L9 29L10 29L10 30L11 30L11 28L12 28L12 27L13 27L13 29L14 29L14 31L15 31L15 29L17 29L17 28L15 28L15 26L14 26L14 27L13 27L13 26L12 26L12 27L11 27L11 26L10 26L10 25L11 25L11 22ZM25 25L25 28L28 28L28 25ZM26 26L26 27L27 27L27 26ZM14 28L14 29L15 29L15 28ZM27 29L27 30L28 30L28 29ZM12 30L12 31L13 31L13 30ZM17 30L17 31L18 31L18 30ZM20 30L20 31L21 31L21 30ZM30 32L30 33L31 33L31 32ZM32 32L32 33L33 33L33 32ZM0 0L0 7L7 7L7 0ZM1 1L1 6L6 6L6 1ZM2 2L2 5L5 5L5 2ZM26 0L26 7L33 7L33 0ZM27 1L27 6L32 6L32 1ZM28 2L28 5L31 5L31 2ZM0 26L0 33L7 33L7 26ZM1 27L1 32L6 32L6 27ZM2 28L2 31L5 31L5 28Z" fill="#000000"/></g></g></svg>
